<svg width="24" height="25" viewBox="0 0 24 25" fill="none" xmlns="http://www.w3.org/2000/svg">
<circle cx="12" cy="12.5" r="12" fill="#FFB200"/>
<path d="M12.8548 10.542C11.534 10.5436 10.3047 10.5499 9.0755 10.5446C8.37555 10.541 7.89392 9.94757 8.03474 9.28469C8.08276 9.05626 8.20788 8.85118 8.38921 8.70372C8.57053 8.55626 8.79708 8.47535 9.031 8.4745C11.1481 8.46406 13.2653 8.46194 15.3824 8.46821C15.5177 8.46503 15.6522 8.48928 15.7778 8.53947C15.9034 8.58967 16.0175 8.66478 16.1132 8.76025C16.2089 8.85572 16.2841 8.96956 16.3344 9.0949C16.3847 9.22023 16.409 9.35445 16.4059 9.48943C16.4153 11.6015 16.4135 13.7136 16.4006 15.8257C16.3873 16.0935 16.2703 16.3457 16.0743 16.5291C15.8783 16.7125 15.6186 16.8127 15.3499 16.8087C15.0812 16.8047 14.8246 16.6968 14.6341 16.5077C14.4437 16.3185 14.3343 16.063 14.329 15.7949C14.3233 14.6598 14.3295 13.5252 14.3306 12.3907C14.3306 12.2925 14.3259 12.1937 14.3222 12.0459C14.2191 12.1405 14.1447 12.2031 14.0767 12.271C12.159 14.1845 11.512 14.8374 9.58383 16.7404C9.39523 16.9261 9.16111 17.0592 8.90483 17.1264C8.49491 17.222 8.13525 17.0585 7.89705 16.7038C7.64786 16.334 7.63686 15.9427 7.8803 15.5609C7.95762 15.4464 8.04714 15.3406 8.14729 15.2454C10.0519 13.345 10.6899 12.7084 12.5941 10.8084L12.8548 10.542Z" fill="white"/>
</svg>
