<svg width="51" height="50" viewBox="0 0 51 50" fill="none" xmlns="http://www.w3.org/2000/svg">
<rect x="0.5" width="50" height="50" rx="10" fill="#C6FFEC"/>
<path d="M23.5 15C24.5609 15 25.5783 15.4214 26.3284 16.1716C27.0786 16.9217 27.5 17.9391 27.5 19V21H30C30.3978 21 30.7794 21.158 31.0607 21.4393C31.342 21.7206 31.5 22.1022 31.5 22.5V24C31.181 24 30.863 24.11 30.604 24.329L30.497 24.429C29.685 25.274 28.841 25.667 27.9 25.667C27.117 25.667 26.5 26.31 26.5 27.083V29.584C26.5 31.958 27.424 33.804 29.18 35.002L17 35C16.6022 35 16.2206 34.842 15.9393 34.5607C15.658 34.2794 15.5 33.8978 15.5 33.5V22.5C15.5 22.1022 15.658 21.7206 15.9393 21.4393C16.2206 21.158 16.6022 21 17 21H19.5V19C19.5 17.9391 19.9214 16.9217 20.6716 16.1716C21.4217 15.4214 22.4391 15 23.5 15ZM31.784 25.122C32.776 26.158 33.875 26.667 35.1 26.667C35.293 26.667 35.455 26.81 35.492 26.999L35.5 27.083V29.584C35.5 32.266 34.187 34.09 31.627 34.979C31.5451 35.0075 31.4559 35.0075 31.374 34.979C28.898 34.119 27.589 32.387 27.504 29.849L27.5 29.585V27.085C27.5 26.855 27.68 26.668 27.9 26.668C29.123 26.668 30.223 26.158 31.218 25.123C31.2544 25.0844 31.2982 25.0537 31.3469 25.0327C31.3956 25.0117 31.448 25.0009 31.501 25.0009C31.554 25.0009 31.6064 25.0117 31.6551 25.0327C31.7038 25.0537 31.7476 25.0844 31.784 25.123V25.122ZM23.5 26.5C23.1022 26.5 22.7206 26.658 22.4393 26.9393C22.158 27.2206 22 27.6022 22 28C22 28.3978 22.158 28.7794 22.4393 29.0607C22.7206 29.342 23.1022 29.5 23.5 29.5C23.8978 29.5 24.2794 29.342 24.5607 29.0607C24.842 28.7794 25 28.3978 25 28C25 27.6022 24.842 27.2206 24.5607 26.9393C24.2794 26.658 23.8978 26.5 23.5 26.5ZM23.5 17C22.9696 17 22.4609 17.2107 22.0858 17.5858C21.7107 17.9609 21.5 18.4696 21.5 19V21H25.5V19C25.5 18.4696 25.2893 17.9609 24.9142 17.5858C24.5391 17.2107 24.0304 17 23.5 17Z" fill="#00B287"/>
</svg>
