<svg width="50" height="50" viewBox="0 0 50 50" fill="none" xmlns="http://www.w3.org/2000/svg">
<rect width="50" height="50" rx="10" fill="#C6FFEC"/>
<path d="M28.2398 14.2574C29.2293 14.7714 29.9748 15.6338 30.3212 16.6649L30.922 18.8125H24.125L23.894 18.8181H23.8777C22.7618 18.879 21.7123 19.3495 20.9448 20.133C20.1772 20.9164 19.7497 21.9535 19.75 23.0312V31.4687L19.7558 31.6915V31.7072C19.7733 31.9885 19.8177 32.2596 19.8877 32.5229C19.1915 32.5096 18.5087 32.336 17.8962 32.0166C16.9063 31.5028 16.1603 30.6403 15.8137 29.6091L13.485 21.2459C13.1932 20.2055 13.3268 19.0968 13.8583 18.1487C14.3912 17.1942 15.2856 16.4749 16.355 16.1406L25.028 13.894C26.1068 13.6136 27.2561 13.7432 28.2387 14.2562L28.2398 14.2574Z" fill="#00B287"/>
<path d="M24.1332 19.9375L23.9348 19.9431C23.1183 19.9899 22.3511 20.3356 21.7902 20.9096C21.2292 21.4836 20.9167 22.2425 20.9167 23.0312V31.4609L20.9225 31.6521C20.971 32.4395 21.3295 33.1792 21.9247 33.7202C22.52 34.2612 23.307 34.5625 24.125 34.5625H24.6873C23.887 33.0812 23.6368 31.3803 23.9781 29.7428C24.3195 28.1053 25.2319 26.6299 26.5636 25.5618C27.8954 24.4938 29.5661 23.8976 31.2981 23.8723C33.03 23.847 34.7187 24.3943 36.0833 25.423V23.0391L36.0775 22.8479C36.029 22.0605 35.6705 21.3208 35.0752 20.7798C34.48 20.2388 33.6929 19.9375 32.875 19.9375H24.1332Z" fill="#00B287"/>
<path d="M37.8333 31.1875C37.8333 29.5465 37.1573 27.9727 35.9539 26.8123C34.7506 25.6519 33.1185 25 31.4167 25C29.7149 25 28.0828 25.6519 26.8794 26.8123C25.676 27.9727 25 29.5465 25 31.1875C25 32.8285 25.676 34.4023 26.8794 35.5627C28.0828 36.7231 29.7149 37.375 31.4167 37.375C33.1185 37.375 34.7506 36.7231 35.9539 35.5627C37.1573 34.4023 37.8333 32.8285 37.8333 31.1875ZM31.3117 27.2579L31.4167 27.25L31.5217 27.259C31.6382 27.2795 31.7455 27.3338 31.8293 27.4146C31.9131 27.4954 31.9694 27.5989 31.9907 27.7112L32 27.8125V30.625L34.9225 30.6261L35.0275 30.6351C35.1441 30.6557 35.2514 30.7099 35.3351 30.7907C35.4189 30.8715 35.4752 30.975 35.4965 31.0874L35.5058 31.1886L35.4965 31.2899C35.4751 31.4024 35.4187 31.506 35.3347 31.5868C35.2507 31.6676 35.1431 31.7218 35.0263 31.7421L34.9213 31.7511H32.0012V34.567L31.9918 34.6683C31.9705 34.7806 31.9143 34.8841 31.8305 34.9649C31.7467 35.0457 31.6394 35.1 31.5228 35.1205L31.4178 35.1295L31.3128 35.1205C31.1963 35.1 31.089 35.0457 31.0052 34.9649C30.9214 34.8841 30.8651 34.7806 30.8438 34.6683L30.8345 34.567V31.75H27.9143L27.8093 31.741C27.6928 31.7205 27.5855 31.6662 27.5017 31.5854C27.4179 31.5046 27.3616 31.4011 27.3403 31.2888L27.331 31.1875L27.3403 31.0862C27.3616 30.9739 27.4179 30.8704 27.5017 30.7896C27.5855 30.7088 27.6928 30.6545 27.8093 30.634L27.9143 30.625H30.8333V27.8125L30.8427 27.7112C30.8637 27.5987 30.9199 27.4949 31.0037 27.4139C31.0875 27.3329 31.195 27.2785 31.3117 27.2579Z" fill="#00B287"/>
</svg>
