<svg width="51" height="50" viewBox="0 0 51 50" fill="none" xmlns="http://www.w3.org/2000/svg">
<rect x="0.5" width="50" height="50" rx="10" fill="#C6FFEC"/>
<path d="M26.909 15.512C26.0054 15.1456 24.9946 15.1456 24.091 15.512L21.901 16.4L31.493 20.13L34.867 18.827C34.7287 18.7122 34.5736 18.6195 34.407 18.552L26.909 15.512ZM35.5 20.19L26.25 23.764V30.605L31.893 24.962C32.356 24.4991 32.9466 24.1849 33.5892 24.0599C34.2319 23.9348 34.8972 24.0045 35.5 24.26V20.19ZM24.75 23.764V33.661L24.563 34.407C24.5443 34.4815 24.5297 34.5569 24.519 34.633C24.3735 34.5933 24.2306 34.5449 24.091 34.488L16.593 31.448C16.27 31.3172 15.9935 31.0929 15.7987 30.8039C15.604 30.515 15.5 30.1745 15.5 29.826V20.19L24.75 23.764ZM16.133 18.827L25.5 22.446L29.417 20.932L19.874 17.222L16.593 18.552C16.423 18.621 16.269 18.714 16.133 18.827ZM32.6 25.669L26.697 31.572C26.3531 31.9161 26.1091 32.3471 25.991 32.819L25.533 34.65C25.4875 34.8322 25.4899 35.023 25.54 35.204C25.5902 35.385 25.6864 35.5498 25.8192 35.6826C25.952 35.8153 26.117 35.9114 26.298 35.9614C26.479 36.0114 26.6699 36.0137 26.852 35.968L28.682 35.511C29.1544 35.3929 29.5858 35.1485 29.93 34.804L35.832 28.902C36.2441 28.4701 36.4709 27.8941 36.4639 27.2971C36.4569 26.7002 36.2166 26.1297 35.7945 25.7075C35.3723 25.2854 34.8018 25.0451 34.2049 25.0381C33.6079 25.0311 33.0319 25.2579 32.6 25.67V25.669Z" fill="#00B287"/>
</svg>
