<svg width="50" height="50" viewBox="0 0 50 50" fill="none" xmlns="http://www.w3.org/2000/svg">
<rect width="50" height="50" rx="10" fill="#C6FFEC"/>
<path d="M23.5367 20.5556L23.5927 20.6726L28.8997 33.6776C28.9962 33.9139 28.9987 34.1782 28.9067 34.4163C28.8146 34.6544 28.635 34.8483 28.4046 34.9582C28.1742 35.0682 27.9105 35.0858 27.6675 35.0076C27.4245 34.9294 27.2207 34.7612 27.0977 34.5376L27.0477 34.4326L25.6667 31.0506H19.3807L17.8907 34.4576C17.7923 34.682 17.6149 34.8625 17.3922 34.9648C17.1695 35.0672 16.917 35.0841 16.6827 35.0126L16.5727 34.9726C16.348 34.8744 16.1673 34.6971 16.0648 34.4744C15.9623 34.2517 15.9451 33.9991 16.0167 33.7646L16.0567 33.6546L21.7517 20.6506C22.0877 19.8806 23.1457 19.8556 23.5377 20.5566L23.5367 20.5556ZM22.6337 23.6176L20.2557 29.0506H24.8507L22.6337 23.6176Z" fill="#00B287"/>
<path fill-rule="evenodd" clip-rule="evenodd" d="M27.9087 26.605L29.2436 29.783C29.3634 30.0681 29.523 30.3283 29.7144 30.5581H30.9907V28.667C32.7517 28.2246 34.0269 26.9061 34.0269 25.3534C34.0269 22.9418 31.7368 22.3693 29.8977 21.9095C27.9893 21.4498 27.0872 21.1028 27.0872 20.1486C27.0872 19.2117 28.2756 18.4137 29.6896 18.4137C31.1035 18.4137 32.2919 19.2117 32.2919 20.1486H34.0269C34.0269 18.5958 32.7517 17.2773 30.9907 16.8349V14.9438H28.3884V16.8349C26.6274 17.2773 25.3523 18.5958 25.3523 20.1486C25.3523 22.5601 27.6424 23.1327 29.4814 23.5924C31.3898 24.0522 32.2919 24.3991 32.2919 25.3534C32.2919 26.2902 31.1035 27.0883 29.6896 27.0883C29.0074 27.0883 28.3777 26.9025 27.9087 26.605Z" fill="#00B287"/>
</svg>
