<svg width="50" height="50" viewBox="0 0 50 50" fill="none" xmlns="http://www.w3.org/2000/svg">
<rect width="50" height="50" rx="10" fill="#C6FFEC"/>
<path fill-rule="evenodd" clip-rule="evenodd" d="M20.3631 18.6865C19.0633 19.7753 18.1881 21.2869 17.891 22.9563H17.7818C16.45 22.9563 15.1728 23.4853 14.2311 24.427C13.2894 25.3687 12.7604 26.6459 12.7604 27.9776C12.7604 29.3094 13.2894 30.5866 14.2311 31.5283C15.1728 32.47 16.45 32.999 17.7818 32.999H32.2182C33.55 32.999 34.8272 32.47 35.7689 31.5283C36.7105 30.5866 37.2396 29.3094 37.2396 27.9776C37.2396 26.6459 36.7105 25.3687 35.7689 24.427C34.8272 23.4853 33.55 22.9563 32.2182 22.9563H32.109C31.8119 21.2869 30.9367 19.7753 29.6369 18.6865C28.3371 17.5976 26.6956 17.0009 25 17.0009C23.3044 17.0009 21.6629 17.5976 20.3631 18.6865ZM26.1628 22.1731L22.8138 29.9949L22.7915 30.0564C22.7515 30.1929 22.765 30.3395 22.8294 30.4664C22.8939 30.5932 23.0042 30.6907 23.1381 30.7389C23.2719 30.7872 23.4191 30.7825 23.5496 30.726C23.6801 30.6694 23.7841 30.5652 23.8404 30.4345L27.1895 22.6127L27.2118 22.5512C27.2518 22.4147 27.2382 22.2681 27.1738 22.1412C27.1094 22.0144 26.999 21.9169 26.8652 21.8687C26.7314 21.8204 26.5842 21.8251 26.4537 21.8816C26.3232 21.9382 26.2191 22.0424 26.1628 22.1731ZM21.8124 23.6733L19.5782 25.9075L19.5318 25.96C19.4485 26.0675 19.4072 26.2017 19.4157 26.3374C19.4242 26.4732 19.482 26.6011 19.5782 26.6973L21.8124 28.9315L21.8649 28.9784C21.9771 29.0662 22.1186 29.1078 22.2605 29.0947C22.4024 29.0815 22.5339 29.0147 22.6281 28.9078C22.7223 28.8009 22.7721 28.662 22.7673 28.5196C22.7625 28.3772 22.7034 28.242 22.6021 28.1417L20.7629 26.3024L22.6021 24.4631L22.6485 24.4106C22.7353 24.2984 22.7761 24.1573 22.7627 24.016C22.7492 23.8747 22.6825 23.7439 22.576 23.65C22.4696 23.5562 22.3314 23.5063 22.1896 23.5107C22.0477 23.515 21.9129 23.5732 21.8124 23.6733ZM27.7577 23.5103C27.6219 23.5188 27.494 23.5766 27.3978 23.6728H27.3967C27.292 23.7775 27.2331 23.9196 27.2331 24.0677C27.2331 24.2158 27.292 24.3578 27.3967 24.4626L29.236 26.3024L27.3978 28.1389L27.3509 28.192C27.2641 28.3042 27.2232 28.4453 27.2367 28.5866C27.2502 28.7278 27.3169 28.8587 27.4233 28.9526C27.5298 29.0464 27.6679 29.0962 27.8098 29.0919C27.9516 29.0876 28.0865 29.0294 28.187 28.9292L30.4217 26.6979L30.4681 26.6448C30.5515 26.5373 30.5928 26.4031 30.5842 26.2674C30.5757 26.1317 30.5179 26.0037 30.4217 25.9075L28.187 23.6728L28.1351 23.6264C28.0276 23.5431 27.8934 23.5018 27.7577 23.5103Z" fill="#00B287"/>
</svg>
