<svg width="50" height="50" viewBox="0 0 50 50" fill="none" xmlns="http://www.w3.org/2000/svg">
<rect width="50" height="50" rx="10" fill="#C6FFEC"/>
<path d="M31.9026 14.1957L32.1235 14.2017C33.0805 14.2556 33.9841 14.6598 34.6621 15.3373C35.34 16.0149 35.7449 16.9182 35.7994 17.8751L35.8054 18.0972V31.9028L35.7994 32.1236C35.7449 33.0802 35.3404 33.9832 34.663 34.6607C33.9855 35.3381 33.0825 35.7427 32.1259 35.7971L31.9026 35.8043H18.0971C17.1006 35.8044 16.1417 35.4231 15.4174 34.7387C14.693 34.0543 14.258 33.1186 14.2016 32.1236L14.1956 31.9028V18.0972C14.1955 17.1007 14.5768 16.1419 15.2612 15.4175C15.9456 14.6931 16.8813 14.2581 17.8762 14.2017L18.0971 14.1957H31.9026ZM33.4032 20.1981H16.5977L16.5965 31.9028C16.5965 32.6795 17.1872 33.3193 17.9435 33.3962L18.0971 33.4034H31.9038L32.0575 33.3962C32.4008 33.361 32.7215 33.2085 32.9655 32.9645C33.2096 32.7204 33.362 32.3997 33.3972 32.0564L33.4032 31.9028V20.1981ZM22.899 21.9988C23.1166 21.9988 23.3268 22.0776 23.4908 22.2206C23.6548 22.3636 23.7614 22.5612 23.791 22.7767L23.7994 22.8992V31.3025C23.7994 31.5201 23.7206 31.7303 23.5776 31.8943C23.4346 32.0582 23.237 32.1649 23.0215 32.1945L22.899 32.2029H18.6974C18.4798 32.2029 18.2696 32.1241 18.1056 31.9811C17.9416 31.8381 17.835 31.6405 17.8054 31.425L17.797 31.3025V22.8992C17.797 22.6816 17.8758 22.4714 18.0188 22.3074C18.1618 22.1434 18.3594 22.0368 18.5749 22.0072L18.6974 21.9988H22.899ZM21.9987 23.7995H19.5977V30.4022H21.9987V23.7995ZM30.1019 25.6038C30.33 25.6039 30.5496 25.6906 30.7163 25.8463C30.883 26.002 30.9844 26.2152 30.9999 26.4428C31.0155 26.6704 30.944 26.8954 30.8001 27.0724C30.6561 27.2493 30.4504 27.3651 30.2244 27.3962L30.1019 27.4046H25.905C25.677 27.4042 25.4576 27.3173 25.2912 27.1615C25.1247 27.0057 25.0236 26.7925 25.0082 26.565C24.9928 26.3375 25.0643 26.1126 25.2083 25.9358C25.3522 25.7589 25.5579 25.6433 25.7838 25.6122L25.905 25.6038H30.1019ZM31.3024 21.9988C31.5305 21.9989 31.7501 22.0855 31.9168 22.2413C32.0835 22.397 32.1848 22.6102 32.2004 22.8378C32.2159 23.0654 32.1445 23.2904 32.0006 23.4673C31.8566 23.6443 31.6508 23.76 31.4248 23.7911L31.3024 23.7995H25.905C25.677 23.7991 25.4576 23.7123 25.2912 23.5564C25.1247 23.4006 25.0236 23.1874 25.0082 22.9599C24.9928 22.7324 25.0643 22.5076 25.2083 22.3307C25.3522 22.1539 25.5579 22.0383 25.7838 22.0072L25.905 21.9988H31.3024Z" fill="#00B287"/>
</svg>
