<svg width="325" height="107" viewBox="0 0 325 107" fill="none" xmlns="http://www.w3.org/2000/svg">
<path d="M19.5774 101.25V82.341H22.3381V89.367H22.5043C22.6643 89.072 22.8951 88.73 23.1967 88.342C23.4983 87.955 23.9169 87.616 24.4524 87.327C24.9879 87.031 25.6958 86.884 26.576 86.884C27.7209 86.884 28.7427 87.173 29.6413 87.751C30.54 88.33 31.2448 89.164 31.7557 90.254C32.2727 91.343 32.5312 92.654 32.5312 94.187C32.5312 95.719 32.2758 97.034 31.7649 98.129C31.254 99.219 30.5523 100.059 29.6598 100.65C28.7673 101.235 27.7486 101.527 26.6037 101.527C25.742 101.527 25.0372 101.382 24.4893 101.093C23.9477 100.804 23.523 100.465 23.2152 100.077C22.9074 99.69 22.6705 99.345 22.5043 99.043H22.2734V101.25H19.5774ZM22.2827 94.159C22.2827 95.156 22.4273 96.03 22.7166 96.781C23.0059 97.532 23.4245 98.12 23.9723 98.545C24.5201 98.963 25.1911 99.173 25.9851 99.173C26.8099 99.173 27.4993 98.954 28.0533 98.517C28.6072 98.074 29.0258 97.474 29.3089 96.717C29.5982 95.96 29.7429 95.107 29.7429 94.159C29.7429 93.223 29.6013 92.383 29.3182 91.638C29.0412 90.894 28.6226 90.306 28.0625 89.875C27.5085 89.444 26.8161 89.229 25.9851 89.229C25.1849 89.229 24.5078 89.435 23.9538 89.847C23.406 90.26 22.9905 90.835 22.7074 91.574C22.4242 92.312 22.2827 93.174 22.2827 94.159ZM36.8938 106.568C36.4814 106.568 36.1059 106.534 35.7674 106.467C35.4289 106.405 35.1765 106.337 35.0103 106.263L35.6751 104.001C36.1798 104.137 36.6291 104.195 37.0231 104.177C37.417 104.158 37.7648 104.011 38.0664 103.734C38.3742 103.457 38.645 103.004 38.8789 102.376L39.2205 101.435L34.0316 87.068H36.9862L40.5778 98.074H40.7255L44.3171 87.068H47.2809L41.4364 103.143C41.1656 103.881 40.8209 104.506 40.4023 105.017C39.9838 105.534 39.4852 105.922 38.9066 106.18C38.328 106.439 37.6571 106.568 36.8938 106.568ZM69.7747 88.315C69.5962 87.754 69.3561 87.253 69.0545 86.81C68.7591 86.36 68.4051 85.979 67.9927 85.665C67.5803 85.345 67.1094 85.102 66.5801 84.935C66.0569 84.769 65.4814 84.686 64.8535 84.686C63.7886 84.686 62.8284 84.96 61.9728 85.508C61.1172 86.056 60.4402 86.859 59.9416 87.918C59.4492 88.97 59.2029 90.26 59.2029 91.786C59.2029 93.319 59.4522 94.615 59.9508 95.673C60.4494 96.732 61.1326 97.535 62.0005 98.083C62.8684 98.631 63.8564 98.905 64.9643 98.905C65.9922 98.905 66.8878 98.696 67.6511 98.277C68.4205 97.858 69.0145 97.268 69.4331 96.504C69.8578 95.735 70.0701 94.83 70.0701 93.79L70.8088 93.928H65.3983V91.574H72.8308V93.725C72.8308 95.313 72.4922 96.692 71.8152 97.862C71.1442 99.025 70.2148 99.924 69.0268 100.558C67.845 101.192 66.4908 101.509 64.9643 101.509C63.2531 101.509 61.7512 101.115 60.4586 100.327C59.1722 99.539 58.1689 98.422 57.4487 96.975C56.7285 95.522 56.3684 93.799 56.3684 91.805C56.3684 90.297 56.5777 88.942 56.9963 87.742C57.4148 86.542 58.0027 85.523 58.7598 84.686C59.523 83.843 60.4186 83.2 61.4466 82.756C62.4806 82.307 63.6101 82.082 64.835 82.082C65.8568 82.082 66.8078 82.233 67.688 82.535C68.5744 82.836 69.3623 83.264 70.0517 83.818C70.7472 84.372 71.3227 85.031 71.7782 85.794C72.2337 86.551 72.5415 87.391 72.7015 88.315H69.7747ZM77.1195 101.25V87.068H79.8801V101.25H77.1195ZM78.5137 84.88C78.0336 84.88 77.6212 84.72 77.2765 84.4C76.9379 84.074 76.7686 83.686 76.7686 83.237C76.7686 82.781 76.9379 82.393 77.2765 82.073C77.6212 81.747 78.0336 81.584 78.5137 81.584C78.9938 81.584 79.4031 81.747 79.7417 82.073C80.0864 82.393 80.2587 82.781 80.2587 83.237C80.2587 83.686 80.0864 84.074 79.7417 84.4C79.4031 84.72 78.9938 84.88 78.5137 84.88ZM83.5941 101.25V87.068H86.3548V101.25H83.5941ZM84.9883 84.88C84.5082 84.88 84.0958 84.72 83.7511 84.4C83.4125 84.074 83.2433 83.686 83.2433 83.237C83.2433 82.781 83.4125 82.393 83.7511 82.073C84.0958 81.747 84.5082 81.584 84.9883 81.584C85.4684 81.584 85.8777 81.747 86.2163 82.073C86.561 82.393 86.7333 82.781 86.7333 83.237C86.7333 83.686 86.561 84.074 86.2163 84.4C85.8777 84.72 85.4684 84.88 84.9883 84.88ZM96.818 87.068V89.284H88.8038V87.068H96.818ZM91.0012 101.25V85.425C91.0012 84.538 91.1951 83.803 91.5829 83.218C91.9707 82.627 92.4847 82.187 93.1248 81.898C93.765 81.602 94.4605 81.455 95.2115 81.455C95.7654 81.455 96.2394 81.501 96.6333 81.593C97.0273 81.679 97.3197 81.759 97.5105 81.833L96.8642 84.067C96.7349 84.031 96.5687 83.987 96.3656 83.938C96.1625 83.883 95.9163 83.855 95.627 83.855C94.956 83.855 94.4759 84.021 94.1866 84.354C93.9035 84.686 93.7619 85.166 93.7619 85.794V101.25H91.0012ZM106.286 87.068V89.284H98.54V87.068H106.286ZM100.617 83.67H103.378V97.086C103.378 97.621 103.458 98.025 103.618 98.295C103.778 98.56 103.984 98.742 104.237 98.84C104.495 98.933 104.775 98.979 105.077 98.979C105.298 98.979 105.492 98.963 105.659 98.933C105.825 98.902 105.954 98.877 106.046 98.859L106.545 101.139C106.385 101.201 106.157 101.262 105.862 101.324C105.566 101.392 105.197 101.429 104.754 101.435C104.027 101.447 103.35 101.318 102.722 101.047C102.095 100.776 101.587 100.357 101.199 99.791C100.811 99.225 100.617 98.514 100.617 97.658V83.67Z" fill="white"/>
<path d="M38.7434 39.1476L51.1858 24.1786C51.682 23.5509 51.9437 22.8836 51.9709 22.1799C51.9947 21.4795 51.784 20.8716 51.3354 20.3629C50.8867 19.8541 50.2376 19.5997 49.3913 19.5997C48.9427 19.5997 48.5043 19.6988 48.0829 19.8905C47.658 20.0854 47.2706 20.4257 46.9239 20.908L35.0729 35.4937L23.0009 20.4719C22.4028 19.8905 21.6788 19.5997 20.8326 19.5997C19.9863 19.5997 19.3372 19.8541 18.8886 20.3629C18.4399 20.8716 18.202 21.4663 18.1782 22.1436C18.1511 22.8241 18.4128 23.4782 18.9633 24.1059L31.2086 39.2269L18.287 54.9226C17.7364 55.5536 17.4747 56.2078 17.5019 56.885C17.5257 57.5656 17.7738 58.147 18.2496 58.6294C18.722 59.115 19.3576 59.3562 20.1563 59.3562C21.0535 59.3562 21.7264 59.0655 22.175 58.484L34.852 42.851L47.1482 58.0479C47.5459 58.5336 47.9333 58.8738 48.3072 59.0655C48.681 59.2604 49.167 59.3562 49.7652 59.3562C50.3124 59.3562 50.8493 59.1646 51.3727 58.7747C51.8961 58.3882 52.2054 57.8563 52.3074 57.1758C52.4059 56.4985 52.1306 55.7717 51.4849 54.9953L38.7434 39.1476Z" fill="white"/>
<path d="M85.3858 22.1693C82.3069 20.4562 78.7983 19.5997 74.8599 19.5997C70.9215 19.5997 67.3994 20.4562 64.2971 22.1693C61.1947 23.8823 58.7571 26.2377 56.9844 29.2355C55.2116 32.2333 54.3252 35.6593 54.3252 39.5136C54.3252 43.368 55.2116 46.7226 56.9844 49.7204C58.7571 52.7182 61.1947 55.0736 64.2971 56.7866C67.3994 58.4997 70.9182 59.3562 74.8599 59.3562C78.8017 59.3562 82.3069 58.4997 85.3858 56.7866C88.4646 55.0736 90.8989 52.7182 92.6985 49.7204C94.4948 46.7226 95.3946 43.3225 95.3946 39.5136C95.3442 35.6593 94.4343 32.2333 92.6616 29.2355C90.8888 26.2377 88.4646 23.8823 85.3858 22.1693ZM87.8603 47.1509C86.5777 49.3895 84.8049 51.1479 82.5419 52.4327C80.2756 53.7175 77.7138 54.3599 74.8599 54.3599C72.006 54.3599 69.4408 53.7175 67.1779 52.4327C64.9115 51.1479 63.1253 49.3895 61.8226 47.1509C60.5165 44.9155 59.8651 42.3687 59.8651 39.5136C59.8651 36.6586 60.5165 34.102 61.8226 31.8407C63.1253 29.5826 64.9115 27.808 67.1779 26.5232C69.4408 25.2384 72.0026 24.5961 74.8599 24.5961C77.7172 24.5961 80.2756 25.2384 82.5419 26.5232C84.8049 27.808 86.5777 29.5794 87.8603 31.8407C89.1395 34.102 89.7808 36.6586 89.7808 39.5136C89.7808 42.3687 89.1395 44.9155 87.8603 47.1509Z" fill="white"/>
<path d="M169.659 22.1693C166.58 20.4562 163.072 19.5997 159.133 19.5997C155.195 19.5997 151.673 20.4562 148.571 22.1693C145.468 23.8823 143.031 26.2377 141.258 29.2355C139.485 32.2333 138.599 35.6593 138.599 39.5136C138.599 43.368 139.485 46.7226 141.258 49.7204C143.031 52.7182 145.468 55.0736 148.571 56.7866C151.673 58.4997 155.192 59.3562 159.133 59.3562C163.075 59.3562 166.58 58.4997 169.659 56.7866C172.738 55.0736 175.172 52.7182 176.972 49.7204C178.768 46.7226 179.668 43.3225 179.668 39.5136C179.618 35.6593 178.708 32.2333 176.935 29.2355C175.162 26.2377 172.738 23.8823 169.659 22.1693ZM172.134 47.1509C170.851 49.3895 169.078 51.1479 166.815 52.4327C164.549 53.7175 161.987 54.3599 159.133 54.3599C156.279 54.3599 153.714 53.7175 151.451 52.4327C149.185 51.1479 147.399 49.3895 146.096 47.1509C144.79 44.9155 144.139 42.3687 144.139 39.5136C144.139 36.6586 144.79 34.102 146.096 31.8407C147.399 29.5826 149.185 27.808 151.451 26.5232C153.714 25.2384 156.276 24.5961 159.133 24.5961C161.991 24.5961 164.549 25.2384 166.815 26.5232C169.078 27.808 170.851 29.5794 172.134 31.8407C173.413 34.102 174.054 36.6586 174.054 39.5136C174.054 42.3687 173.413 44.9155 172.134 47.1509Z" fill="white"/>
<path d="M223.58 2.75012C222.74 2.75012 222.052 3.00222 221.512 3.50642C220.968 4.01062 220.699 4.69482 220.699 5.55922V26.7351C219.074 24.4793 216.932 22.6656 214.273 21.2971C211.613 19.9286 208.632 19.2443 205.335 19.2443C201.541 19.2443 198.143 20.1217 195.141 21.8733C192.136 23.6281 189.759 26.0148 188.013 29.04C186.264 32.0651 185.391 35.4766 185.391 39.2678C185.391 43.059 186.288 46.5425 188.087 49.5676C189.883 52.5928 192.334 54.9828 195.437 56.7343C198.539 58.4892 202.034 59.3633 205.926 59.3633C209.817 59.3633 213.225 58.499 216.304 56.7703C219.379 55.0417 221.817 52.6779 223.617 49.6757C225.413 46.6767 226.36 43.3013 226.461 39.5559V5.55922C226.461 4.69482 226.189 4.01062 225.648 3.50642C225.104 3.00222 224.416 2.75012 223.58 2.75012ZM218.889 46.9747C217.583 49.2337 215.81 51.0213 213.571 52.3407C211.331 53.6634 208.78 54.3214 205.926 54.3214C203.072 54.3214 200.581 53.6634 198.318 52.3407C196.051 51.0213 194.255 49.2304 192.925 46.9747C191.596 44.7189 190.931 42.1489 190.931 39.2678C190.931 36.3867 191.596 33.8789 192.925 31.5969C194.255 29.3182 196.051 27.5274 198.318 26.2309C200.581 24.9344 203.119 24.2862 205.926 24.2862C208.733 24.2862 211.328 24.9344 213.571 26.2309C215.81 27.5274 217.583 29.315 218.889 31.5969C220.192 33.8789 220.847 36.4358 220.847 39.2678C220.847 42.0998 220.192 44.7189 218.889 46.9747Z" fill="white"/>
<path d="M263.707 22.205C260.628 20.4692 257.143 19.5997 253.255 19.5997C249.367 19.5997 245.868 20.4692 242.766 22.205C239.664 23.9439 237.213 26.3091 235.416 29.3069C233.617 32.3047 232.72 35.708 232.72 39.5136C232.72 43.3193 233.593 46.6512 235.342 49.649C237.088 52.6468 239.466 55.0152 242.471 56.751C245.472 58.4899 248.87 59.3562 252.664 59.3562C256.257 59.3562 259.47 58.5613 262.303 56.9651C264.603 55.6706 266.507 53.99 268.028 51.9428V56.287C268.028 57.0981 268.297 57.7502 268.841 58.2499C269.381 58.7495 270.069 58.9993 270.909 58.9993C271.748 58.9993 272.433 58.7495 272.977 58.2499C273.518 57.7502 273.79 57.0981 273.79 56.287V39.5136C273.739 35.708 272.816 32.3047 271.02 29.3069C269.22 26.3091 266.782 23.9407 263.707 22.205ZM260.9 52.4327C258.661 53.7175 256.109 54.3599 253.255 54.3599C250.401 54.3599 247.91 53.7175 245.647 52.4327C243.38 51.1479 241.584 49.3765 240.255 47.1152C238.925 44.8571 238.26 42.3233 238.26 39.5136C238.26 36.704 238.925 34.115 240.255 31.8764C241.584 29.641 243.38 27.8696 245.647 26.5589C247.91 25.2514 250.448 24.5961 253.255 24.5961C256.062 24.5961 258.657 25.2514 260.9 26.5589C263.14 27.8696 264.912 29.641 266.218 31.8764C267.521 34.115 268.176 36.6586 268.176 39.5136C268.176 42.3687 267.521 44.8539 266.218 47.1152C264.912 49.3765 263.14 51.1479 260.9 52.4327Z" fill="white"/>
<path d="M313.751 19.9059C312.119 19.235 310.932 19.667 310.19 21.202L296.387 50.7367L281.93 21.13C281.583 20.4099 281.087 19.9419 280.447 19.7259C279.803 19.5099 279.112 19.5721 278.37 19.9059C277.628 20.243 277.132 20.7241 276.886 21.346C276.637 21.9711 276.687 22.6421 277.035 23.3621L293.575 56.6279C293.585 56.6475 293.599 56.6639 293.609 56.6835L286.232 72.4687C285.49 74.0528 285.959 75.2049 287.641 75.9249C288.134 76.1147 288.582 76.2129 288.977 76.2129C289.914 76.2129 290.632 75.6598 291.128 74.5568L315.16 23.2901C315.902 21.706 315.43 20.5801 313.751 19.9059Z" fill="white"/>
<path d="M116.78 27.133C120.471 27.133 123.461 24.2386 123.461 20.6651C123.461 17.0916 120.471 14.1973 116.78 14.1973C113.088 14.1973 110.098 17.0916 110.098 20.6651C110.098 24.2386 113.088 27.133 116.78 27.133Z" fill="white"/>
<path d="M112.915 36.4533L113.014 36.3754C114.156 35.4703 114.324 33.8402 113.388 32.7347L102.967 20.4139C102.032 19.3084 100.348 19.146 99.2063 20.0512L99.108 20.129C97.966 21.0342 97.7982 22.6642 98.7333 23.7698L109.154 36.0905C110.09 37.1961 111.773 37.3585 112.915 36.4533Z" fill="white"/>
<path d="M134.457 20.122L134.359 20.0441C133.217 19.139 131.533 19.3014 130.598 20.4069L120.177 32.7277C119.242 33.8332 119.409 35.4632 120.551 36.3684L120.65 36.4463C121.792 37.3515 123.476 37.1891 124.411 36.0835L134.832 23.7627C135.767 22.6572 135.599 21.0272 134.457 20.122Z" fill="white"/>
<path d="M133.339 54.9555L118.934 37.9256C118.389 37.2821 117.598 36.9522 116.802 36.9555C116.007 36.9522 115.216 37.2821 114.671 37.9256L100.192 55.0396C99.2336 56.1715 99.4073 57.8402 100.577 58.7651C101.746 59.6932 103.47 59.5251 104.425 58.3932L116.535 44.0766C116.672 43.9149 116.929 43.9149 117.066 44.0766L129.177 58.3932C130.152 59.5445 131.923 59.6965 133.092 58.7134C134.221 57.7626 134.288 56.0745 133.339 54.9523V54.9555Z" fill="white"/>
</svg>
