<svg xmlns="http://www.w3.org/2000/svg" width="40" height="40" color="#afbccf" viewBox="0 0 40 40" fill="none">
  <path d="M13.8215 20.4881C13.1706 21.1389 13.1706 22.1942 13.8215 22.8451C14.4723 23.496 15.5276 23.496 16.1785 22.8451L20 19.0236L23.8215 22.8451C24.4723 23.496 25.5276 23.496 26.1785 22.8451C26.8294 22.1942 26.8294 21.1389 26.1785 20.4881L21.1785 15.4881C20.5276 14.8372 19.4723 14.8372 18.8215 15.4881L13.8215 20.4881ZM3.33331 19.9999C3.33331 29.2047 10.7952 36.6666 20 36.6666C29.2047 36.6666 36.6666 29.2047 36.6666 19.9999C36.6666 10.7952 29.2047 3.33325 20 3.33325C10.7952 3.33325 3.33331 10.7952 3.33331 19.9999ZM20 33.3333C12.6362 33.3333 6.66665 27.3637 6.66665 19.9999C6.66665 12.6361 12.6362 6.66659 20 6.66659C27.3638 6.66659 33.3333 12.6361 33.3333 19.9999C33.3333 27.3637 27.3638 33.3333 20 33.3333Z" fill="currentColor"></path>
</svg>