<svg xmlns="http://www.w3.org/2000/svg" width="100%" height="100%" viewBox="0 0 16 16" fill="none">
  <path d="M3.87926 5.57275H0.769775V15.6212H3.87926V5.57275Z" fill="#4C6280"></path>
  <path d="M2.30968 4.2577C2.67686 4.2606 3.03662 4.1543 3.34333 3.95228C3.65004 3.75027 3.88986 3.46164 4.03239 3.12303C4.17491 2.78441 4.21371 2.41106 4.14385 2.05035C4.074 1.68964 3.89864 1.35782 3.64003 1.09698C3.38142 0.836148 3.05121 0.658058 2.69129 0.585305C2.33137 0.512552 1.95797 0.548415 1.61845 0.688345C1.27893 0.828274 0.988606 1.06596 0.784299 1.37126C0.579991 1.67655 0.470912 2.03569 0.470901 2.40311C0.469939 2.6457 0.516738 2.8861 0.608626 3.11059C0.700513 3.33508 0.83569 3.53927 1.00644 3.71148C1.17718 3.8837 1.38016 4.02057 1.60377 4.11429C1.82738 4.20801 2.06725 4.25674 2.30968 4.2577Z" fill="#4C6280"></path>
  <path d="M8.84623 10.3473C8.84623 8.93518 9.49661 8.09341 10.7407 8.09341C11.8871 8.09341 12.4352 8.90137 12.4352 10.3473V15.6228H15.5291V9.25965C15.5291 6.56798 14.0046 5.26647 11.8753 5.26647C11.27 5.25784 10.6728 5.40629 10.142 5.69733C9.61112 5.98838 9.16469 6.4121 8.84623 6.92717V5.57539H5.86377V15.6292H8.84623V10.3473Z" fill="#4C6280"></path>
</svg>