<svg xmlns="http://www.w3.org/2000/svg" width="100%" height="100%" viewBox="0 0 20 15" fill="none">
  <path d="M19.4324 2.31962C19.3218 1.89991 19.1027 1.51673 18.7972 1.20856C18.4917 0.900389 18.1105 0.678092 17.692 0.563998C16.1565 0.149414 10.0004 0.149414 10.0004 0.149414C10.0004 0.149414 3.8435 0.149414 2.30802 0.563998C1.88953 0.67823 1.50843 0.900574 1.20296 1.20872C0.897478 1.51687 0.678366 1.89998 0.567606 2.31962C0.15625 3.86271 0.15625 7.08883 0.15625 7.08883C0.15625 7.08883 0.15625 10.3149 0.567606 11.861C0.678825 12.2801 0.898141 12.6626 1.20359 12.9702C1.50904 13.2778 1.88989 13.4997 2.30802 13.6137C3.8435 14.0282 10.0004 14.0282 10.0004 14.0282C10.0004 14.0282 16.1565 14.0282 17.692 13.6137C18.1102 13.4998 18.4911 13.278 18.7966 12.9704C19.102 12.6627 19.3213 12.2802 19.4324 11.861C19.8438 10.3149 19.8438 7.08883 19.8438 7.08883C19.8438 7.08883 19.8438 3.86271 19.4324 2.31962ZM7.98922 10.0208V4.1598L13.1349 7.08883L7.98922 10.0208Z" fill="#4C6280"></path>
</svg>