<svg width="97" height="30" viewBox="0 0 97 30" fill="none" xmlns="http://www.w3.org/2000/svg">
<g clip-path="url(#clip0_117_15026)">
<path d="M60.0291 15.0495C60.5717 15.0495 60.6703 15.3713 60.6703 15.6436V16.6337H59.6591C59.1412 16.6337 59.0426 16.3366 59.0426 16.0644V15.0495H60.0291ZM59.9551 18.3168C60.3744 18.3168 60.5963 18.5396 60.5963 18.9356V27.2772H59.6838V27.2525C59.3632 27.2277 59.1412 26.9802 59.1412 26.6337V18.3168H59.9551ZM11.2703 24.8267C11.591 25.1238 11.6649 25.2228 11.6896 25.2475L11.7143 25.297L11.6649 25.3465C10.2345 26.8317 8.8287 27.4752 6.90498 27.4752C3.45216 27.4752 0.862549 24.802 0.862549 21.2376C0.862549 17.7228 3.52615 14.9752 6.92965 14.9752C9.27263 14.9752 10.5551 15.8911 11.6156 16.9059L11.6649 16.9554L11.6156 17.0049C11.6156 17.0049 11.3443 17.302 11.0977 17.5495C10.8017 17.8713 10.4071 17.797 10.1605 17.5743C9.17398 16.7327 8.13813 16.3614 6.90498 16.3614C4.31537 16.3614 2.39166 18.4406 2.39166 21.1881C2.39166 23.9356 4.38936 26.0644 6.90498 26.0644C8.18746 26.0644 9.14931 25.6931 10.2098 24.802C10.4811 24.5545 10.9497 24.5049 11.2703 24.8267ZM33.1218 18.0941C35.1934 18.0941 36.4759 19.4802 36.4759 21.7079V27.2277H35.7114C35.1195 27.2277 35.0455 26.8564 35.0455 26.4851V21.9802C35.0455 20.3465 34.2562 19.4059 32.8505 19.4059C31.6666 19.4059 30.4828 20.2228 30.4828 22.0792V27.2277H29.6936C29.2743 27.2277 29.0524 27.0049 29.0524 26.5842V21.9802C29.0524 20.3713 28.2385 19.4307 26.8573 19.4307C25.4762 19.4307 24.4897 20.5693 24.4897 22.1287V26.6089C24.4897 27.1287 24.2677 27.2277 23.8731 27.2277H23.0592V18.2673H23.8485C24.2677 18.2673 24.5144 18.5148 24.5144 18.9356V19.5792C25.0569 18.8119 25.8462 18.0693 27.2766 18.0693C28.9537 18.0693 29.7429 19.0842 30.1129 19.7525C30.8527 18.6139 31.8393 18.0941 33.1218 18.0941ZM43.4802 18.1188C45.5519 18.1188 47.7469 19.7525 47.7469 22.7723C47.7469 25.7921 45.5519 27.4257 43.4802 27.4257C42.1484 27.4257 41.0632 26.8564 40.2 25.6931V29.9505H39.3862C38.9915 29.9505 38.7696 29.7277 38.7696 29.3069V18.2673H39.4848C39.9534 18.2673 40.2247 18.5149 40.2247 18.9851V19.901C41.0879 18.7129 42.1484 18.1188 43.4802 18.1188ZM46.2671 22.7723C46.2671 20.5693 44.738 19.4059 43.2336 19.4059C41.7045 19.4059 40.126 20.6436 40.126 22.7475C40.126 24.8515 41.7045 26.1139 43.2336 26.1139C45.0093 26.1139 46.2671 24.7277 46.2671 22.7723ZM70.0669 18.9356C70.0669 18.4901 70.4615 18.2673 70.7328 18.2673H71.522V25.6436C71.522 28.4158 69.8696 30 67.0087 30C65.5043 30 64.1478 29.5792 62.964 28.7376L62.9146 28.7129L62.9393 28.6634C62.9393 28.6634 63.038 28.4901 63.2599 28.1188C63.3832 27.9208 63.5312 27.8218 63.7039 27.8218C63.8518 27.8218 63.9998 27.896 64.2464 28.0198C65.085 28.4901 66.0222 28.7376 66.9594 28.7376C68.9324 28.7376 70.0669 27.6238 70.0669 25.6683V24.8267C69.1297 25.9653 68.0199 26.5347 66.6881 26.5347C64.6411 26.5347 62.4707 25.0495 62.4707 22.302C62.4707 21.0891 62.9393 19.9752 63.7779 19.1832C64.5424 18.4653 65.6029 18.0445 66.6881 18.0445C68.3652 18.0445 69.4257 18.9109 70.0423 19.6782L70.0669 18.9356ZM70.1409 22.3762C70.1409 20.4455 68.5132 19.4307 66.984 19.4307C65.2576 19.4307 63.9998 20.6683 63.9998 22.3515C63.9998 24.0347 65.2823 25.297 66.984 25.297C68.5378 25.297 70.1409 24.2079 70.1409 22.3762ZM78.3044 18.1188C80.4007 18.1188 81.7325 19.5297 81.7325 21.7079V27.2525H80.8447C80.4501 27.2525 80.2527 27.0545 80.2527 26.6337V22.0297C80.2527 20.4208 79.3649 19.4554 77.8851 19.4554C76.3807 19.4554 75.3201 20.5693 75.3201 22.1535L75.3448 27.2772H73.8897V18.3168H74.6789C75.0242 18.3168 75.3448 18.5148 75.3448 18.9356V19.703C76.06 18.6386 77.0466 18.1188 78.3044 18.1188ZM53.1481 18.1683C55.5897 18.1683 56.9462 19.4307 56.9955 21.7574V27.2277H56.2063C55.787 27.2277 55.5897 27.0297 55.5897 26.6337V26.0148C54.8005 26.9307 53.74 27.4257 52.4822 27.4257C50.1885 27.4257 49.128 25.9653 49.128 24.5792C49.128 22.7723 50.5338 21.7327 52.9755 21.7327H54.4552V22.2277C54.4552 22.6485 54.2333 22.8465 53.814 22.8465H53.0988C51.4957 22.8465 50.6078 23.4406 50.6078 24.5297C50.6078 25.6931 51.7176 26.2129 52.7535 26.2129C54.4059 26.2129 55.6144 25.2475 55.6144 23.8861V21.7574C55.6144 20.2723 54.7019 19.4307 53.0741 19.4307C52.3342 19.4307 51.6683 19.5545 50.9284 19.8515C50.6571 19.9505 50.3119 19.9257 50.2132 19.6287C50.1146 19.4059 50.0406 19.1584 49.9419 18.9356L49.9172 18.8614L49.9666 18.8366C51.0271 18.3911 52.0136 18.1683 53.1481 18.1683ZM16.9675 18.1683C19.4091 18.1683 20.7656 19.4307 20.8149 21.7574V27.2277H20.0257C19.6064 27.2277 19.4091 27.0297 19.4091 26.6337V26.0148C18.6199 26.9307 17.5594 27.4257 16.3016 27.4257C14.0079 27.4257 12.9474 25.9653 12.9474 24.5792C12.9474 22.7723 14.3532 21.7327 16.7948 21.7327H18.2746V22.2277C18.2746 22.6485 18.0527 22.8465 17.6334 22.8465H16.9182C15.3151 22.8465 14.4272 23.4406 14.4272 24.5297C14.4272 25.6931 15.537 26.2129 16.5729 26.2129C18.2253 26.2129 19.4338 25.2475 19.4338 23.8861V21.7574C19.4338 20.2723 18.5212 19.4307 16.8935 19.4307C16.1536 19.4307 15.4877 19.5545 14.7478 19.8515C14.4765 19.9505 14.1312 19.9257 14.0326 19.6287C13.9339 19.4059 13.86 19.1584 13.7613 18.9356L13.7366 18.8614L13.786 18.8366C14.5998 18.5148 15.5864 18.1683 16.9675 18.1683ZM96.5057 21.5099C96.8263 21.7327 96.9989 22.0297 96.9989 22.3515V22.5247C96.9989 22.7723 96.9003 23.1436 96.5057 23.4406C96.3084 23.5891 94.3846 24.9257 92.3376 26.3366C90.3399 27.7228 88.0709 29.3069 87.7996 29.5049V29.7277L87.6763 29.5049C87.6763 29.5049 87.6516 29.4802 87.6763 29.4554V28.2673C87.6763 27.8713 87.7256 27.6733 88.1696 27.3762C88.5395 27.1287 94.4586 23.0198 95.2478 22.4753C94.4586 21.9307 88.6382 17.8713 88.2436 17.5743L88.1942 17.5495C87.8983 17.3267 87.6763 17.1535 87.6763 16.7079V15.297L87.7996 15.3713C88.0956 15.5941 96.2837 21.3366 96.5057 21.5099ZM91.4004 23.0941C91.2031 23.0941 91.0058 23.0198 90.7838 22.8713C90.2659 22.5247 87.6516 20.6931 87.627 20.6683L87.6023 20.6436V19.7525C87.6023 19.5545 87.701 19.3812 87.8489 19.3069C88.0216 19.2327 88.2189 19.2574 88.4162 19.3812C88.8108 19.6287 92.6336 22.302 92.6582 22.3267L92.7569 22.3762L92.6582 22.4257C92.6582 22.4257 92.4116 22.599 92.1157 22.797C91.8444 22.995 91.6224 23.0941 91.4004 23.0941ZM22.0062 10.1733C22.2775 10.4455 22.4255 10.5693 22.4255 10.5693L22.4748 10.6188L22.4255 10.6683C21.7349 11.4851 20.6744 12.4257 18.8 12.4257C16.2844 12.4257 14.2127 10.3465 14.2127 7.77227C14.2127 5.14851 16.235 3.09406 18.8 3.09406C20.2551 3.09406 21.3403 3.58911 22.3515 4.67822L22.4008 4.72772L22.3515 4.77722C22.2035 4.95049 22.0308 5.12376 21.8582 5.29703C21.5869 5.5693 21.291 5.5693 20.8964 5.24752C20.3784 4.82673 19.7125 4.40594 18.7507 4.40594C17.0243 4.40594 15.6925 5.89109 15.6925 7.77227C15.6925 9.65346 17.0736 11.1386 18.8493 11.1386C19.6632 11.1386 20.4031 10.8416 21.069 10.2228C21.3156 10.0495 21.7102 9.87624 22.0062 10.1733ZM31.5508 0.024754C31.9454 0.024754 32.192 0.297027 32.192 0.693066V1.60891H31.1808C30.6629 1.60891 30.5642 1.31188 30.5642 1.0396V0.024754H31.5508ZM31.4521 3.29208C31.8714 3.29208 32.0934 3.51485 32.0934 3.91089V12.2525H31.1808V12.2277C30.8602 12.203 30.6382 11.9554 30.6382 11.6089V3.29208H31.4521ZM40.898 3.76237C41.046 3.41584 41.2927 3.26732 41.6873 3.26732H42.6984L42.6491 3.36634C42.6245 3.4406 39.147 11.4356 38.999 11.7574C38.851 12.0792 38.6291 12.2277 38.2838 12.2277H38.0865C37.7165 12.2277 37.4945 12.1535 37.3219 11.7822C37.1739 11.4604 33.6964 3.41584 33.6718 3.34158L33.6225 3.24258H34.6583C35.0529 3.24258 35.3242 3.41584 35.4722 3.78712C35.5708 4.10891 37.7412 9.40594 38.1604 10.396C38.5797 9.38119 40.7501 4.08415 40.898 3.76237ZM49.9 7.22772C49.974 7.22772 50.048 7.20297 50.0727 7.15346C50.122 7.10396 50.1467 6.9802 50.0973 6.83168C49.974 5.34654 48.9135 4.35644 47.4337 4.35644C45.9786 4.35644 44.8441 5.56931 44.6715 7.30198C44.6715 7.30198 44.6468 7.5 44.6468 7.79703C44.6468 8.04455 44.6715 8.24257 44.6715 8.24257C44.8441 10 46.0773 11.1881 47.705 11.1881C48.6422 11.1881 49.4314 10.8911 50.0727 10.3218C50.2453 10.1485 50.5659 10.0495 50.9112 10.3218C51.1332 10.5198 51.3552 10.6931 51.3552 10.6931L51.4045 10.7426L51.3552 10.7921C50.3193 11.9554 49.1848 12.4505 47.6804 12.4505C45.1401 12.4505 43.2164 10.4455 43.2164 7.77227C43.2164 5.09901 45.0661 3.09406 47.5077 3.09406C49.7521 3.09406 51.3798 4.60396 51.6018 6.88118C51.6264 7.37623 51.5278 7.74752 51.2812 8.0198C51.0345 8.26732 50.6893 8.39109 50.2207 8.39109C49.4314 8.39109 47.5324 8.39109 45.9046 8.41584H45.8306V7.84653C45.8306 7.45049 46.0526 7.22772 46.4472 7.22772H49.9ZM8.58951 0.470295C8.76215 0.841582 13.7687 12.0049 13.8181 12.1287L13.8674 12.2277H13.0042C12.8315 12.2277 12.2643 12.2277 12.0423 11.7574C11.8944 11.4109 8.21957 3.0693 7.67698 1.83168L5.0627 7.72277H8.9348V8.36633C8.9348 8.78712 8.63884 9.08415 8.17024 9.08415H4.47079C4.32281 9.38118 3.45961 11.2871 3.31163 11.6337C3.08966 12.0545 2.81837 12.2277 2.44843 12.2277H1.51123L1.56056 12.1287C1.60988 12.0049 6.6658 0.717819 6.78911 0.445542C6.93709 0.148512 7.20839 0 7.47968 0H7.82496C8.21957 0 8.41687 0.123761 8.58951 0.470295ZM28.4926 10.9653C28.5665 11.0148 28.6652 11.1386 28.6652 11.3861C28.6652 11.7079 28.6405 11.9554 28.6405 11.9802V12.0297L28.6159 12.0544C28.1719 12.2772 27.432 12.4257 26.7908 12.4257C25.163 12.4257 24.2505 11.5099 24.2505 9.87624V0.0990084H24.9657C25.4097 0.0990084 25.7056 0.371289 25.7056 0.767328V3.31683H27.728C28.0979 3.31683 28.4926 3.5396 28.4926 3.98515V4.60396H25.7056L25.7303 9.65346C25.7303 10.5693 26.1989 11.0644 27.1114 11.0644C27.4074 11.0644 27.6293 11.0149 27.95 10.9158C28.1719 10.8416 28.3692 10.8663 28.4926 10.9653Z" fill="#356AE6"/>
</g>
<defs>
<clipPath id="clip0_117_15026">
<rect width="96.1364" height="30" fill="white" transform="translate(0.862549)"/>
</clipPath>
</defs>
</svg>
