<svg width="117" height="30" viewBox="0 0 117 30" fill="none" xmlns="http://www.w3.org/2000/svg">
<g clip-path="url(#clip0_117_14981)">
<path fill-rule="evenodd" clip-rule="evenodd" d="M0.0987586 15.0204C0.102963 27.5296 0.11743 30.0101 0.18556 29.8581C0.414682 29.3463 12.7859 0.197471 12.8126 0.106527C12.8423 0.00553942 12.5111 0 6.46884 0H0.093689L0.0987586 15.0204ZM21.7941 0.0706124C21.7941 0.163504 34.4039 29.9016 34.4751 29.9768C34.507 30.0104 34.5299 23.7493 34.5299 15.0173V0H28.162C23.3718 0 21.7941 0.0174705 21.7941 0.0706124ZM70.7745 5.70146C70.7143 5.72539 70.6972 6.30861 70.6972 8.3294L70.6972 10.9267L69.6617 10.9323C68.5376 10.9385 67.8439 11.0455 66.8886 11.36C65.0021 11.981 63.513 13.2941 62.7695 14.9922C61.8317 17.1339 62.0827 19.9876 63.3645 21.7562C63.7601 22.3021 64.6002 23.0571 65.1615 23.3714C66.8737 24.3301 69.1537 24.5749 71.6809 24.0712C72.4229 23.9234 73.6938 23.5457 74.1798 23.3287L74.4166 23.223L74.4093 14.5216C74.4041 8.36964 74.3823 5.79691 74.3349 5.74067C74.2825 5.67851 73.8949 5.6622 72.5599 5.66598C71.6204 5.66859 70.817 5.6846 70.7745 5.70146ZM91.5668 5.75741C91.4784 5.84445 91.4706 6.70239 91.4851 14.7036C91.4994 22.6148 91.5114 23.5635 91.5973 23.6481C91.7279 23.7767 92.9744 24.0799 93.8309 24.1914C95.4013 24.3959 96.6149 24.3703 97.8458 24.1068C100.52 23.5341 102.52 21.8814 103.314 19.5886C103.608 18.7374 103.68 18.2402 103.675 17.0748C103.672 16.0953 103.655 15.917 103.512 15.3936C103.191 14.2177 102.662 13.3307 101.806 12.5313C100.908 11.6927 99.8143 11.1874 98.451 10.9813C97.713 10.8697 96.5663 10.899 95.798 11.049C95.5429 11.0988 95.3142 11.1396 95.2898 11.1397C95.2653 11.1397 95.2375 9.9334 95.2279 8.45906C95.213 6.15515 95.1976 5.77031 95.1179 5.7207C95.0655 5.68807 94.2949 5.66263 93.3448 5.66208C91.8944 5.66129 91.6512 5.67431 91.5668 5.75741ZM51.2865 7.17897C51.2513 7.24374 51.2223 7.41497 51.2221 7.55942C51.222 7.70393 51.195 7.98322 51.1623 8.18002C51.1295 8.37688 49.8887 11.986 48.4049 16.2003C46.9211 20.4146 45.7231 23.9036 45.7426 23.9537C45.7959 24.0905 49.129 24.0901 49.2443 23.9533C49.2867 23.903 49.6044 23.0059 49.9504 21.9597L50.5795 20.0576H53.6017H56.6239L57.2896 21.9652C57.6557 23.0144 57.9879 23.9115 58.0277 23.9588C58.1319 24.0824 61.782 24.0869 61.83 23.9635C61.8679 23.8663 55.8673 7.17227 55.7714 7.10781C55.7348 7.08321 54.7251 7.0627 53.5276 7.06215C51.4379 7.0613 51.348 7.06599 51.2865 7.17897ZM54.7841 14.092C55.209 15.4312 55.5709 16.5749 55.5885 16.6335C55.6184 16.7334 55.494 16.74 53.5775 16.74H51.5347L51.5996 16.5726C51.7631 16.1516 52.9218 12.4815 53.2052 11.4873C53.379 10.8777 53.5349 10.3377 53.5517 10.2875C53.5685 10.2373 53.6789 10.5249 53.7969 10.9267C53.915 11.3284 54.3593 12.7528 54.7841 14.092ZM82.0083 10.9631C79.2009 11.3206 77.05 13.4116 76.5426 16.2765C76.4201 16.9685 76.4199 18.2473 76.5424 18.9907C76.9019 21.1735 78.2209 22.9619 80.0683 23.7712C81.0518 24.2022 82.4768 24.4113 83.6233 24.2931C86.414 24.0054 88.4394 22.3049 89.149 19.6537C89.8669 16.9713 89.1716 14.1708 87.3745 12.5062C86.0268 11.258 84.0829 10.699 82.0083 10.9631ZM110.481 10.9594C107.617 11.3987 105.632 13.4783 105.165 16.528C104.817 18.8057 105.425 21.0595 106.763 22.4463C107.302 23.0053 107.803 23.3633 108.484 23.6776C110.266 24.5 113.13 24.5508 115.235 23.7975C116.063 23.5012 116.015 23.6116 116.015 22.034C116.015 20.977 115.997 20.6864 115.933 20.662C115.888 20.6449 115.601 20.7134 115.296 20.8139C114.514 21.072 113.661 21.1953 112.645 21.1974C111.628 21.1994 111.06 21.0973 110.418 20.7973C109.547 20.3901 109.049 19.7432 108.879 18.7985L108.839 18.5743L112.72 18.555C115.687 18.5403 116.634 18.5178 116.737 18.4595C116.93 18.3507 116.974 18.0063 116.968 16.6183C116.964 15.5965 116.945 15.3642 116.829 14.9499C116.254 12.8912 114.915 11.5456 112.974 11.0764C112.38 10.9327 111.059 10.8708 110.481 10.9594ZM17.2578 11.1272C17.2329 11.167 12.095 23.0581 11.7359 23.9072C11.7108 23.9665 12.3409 23.9861 14.6817 23.9985L17.6596 24.0143L18.8552 26.9859C19.5127 28.6204 20.0631 29.9697 20.0781 29.9846C20.0932 29.9994 21.3017 30.0044 22.7637 29.9957L25.422 29.9798L21.3868 20.5541C19.1675 15.3698 17.3385 11.1153 17.3224 11.0995C17.3064 11.0837 17.2773 11.0961 17.2578 11.1272ZM112.406 14.0636C113.054 14.389 113.466 15.0122 113.498 15.7152L113.511 15.9791L111.169 15.995L108.827 16.011L108.862 15.8413C108.993 15.1956 109.424 14.5257 109.919 14.1983C110.372 13.8983 110.7 13.8174 111.388 13.8361C111.931 13.8509 112.024 13.8717 112.406 14.0636ZM70.5581 14.0387L70.6972 14.0758V17.5639V21.0519L70.3851 21.1178C70.2134 21.1541 69.8169 21.1832 69.5041 21.1827C67.6079 21.1792 66.3973 20.2207 66.0932 18.4821C65.6766 16.1018 66.8404 14.3456 69.0608 14.0037C69.4271 13.9473 70.2913 13.9675 70.5581 14.0387ZM83.7165 14.0902C84.7436 14.3905 85.4283 15.4368 85.6021 16.9716C85.8141 18.8432 85.1787 20.4754 84.0204 21.0349C83.5387 21.2677 82.7069 21.3182 82.1581 21.1483C81.0902 20.8175 80.3791 19.7406 80.222 18.2162C80.0331 16.3824 80.6469 14.7887 81.7642 14.2121C82.2975 13.9369 83.0349 13.8909 83.7165 14.0902ZM97.4054 14.0643C97.9711 14.1525 98.6377 14.4779 99.0158 14.85C100.007 15.8261 100.228 17.9007 99.5011 19.401C99.1033 20.2217 98.1823 20.9262 97.2129 21.1511C96.8211 21.2421 95.6499 21.2773 95.3806 21.2062L95.2415 21.1695V17.6807V14.192L95.5661 14.1294C95.7447 14.095 95.9602 14.0556 96.0452 14.0421C96.3555 13.9924 97.0134 14.0032 97.4054 14.0643Z" fill="#FA0F00"/>
</g>
<defs>
<clipPath id="clip0_117_14981">
<rect width="116.875" height="30" fill="white" transform="translate(0.093689)"/>
</clipPath>
</defs>
</svg>
