<svg width="151" height="30" viewBox="0 0 151 30" fill="none" xmlns="http://www.w3.org/2000/svg">
<g clip-path="url(#clip0_117_14983)">
<path d="M37.5198 0.772949C33.7448 0.772949 32.4198 3.39141 32.4198 5.83531V7.33157H31.6198C31.0448 7.33157 30.5948 7.78046 30.5948 8.35402C30.5948 8.92759 31.0448 9.37647 31.6198 9.37647H32.4198V19.7007C32.4198 20.2992 32.8948 20.798 33.5198 20.798C34.1198 20.798 34.6198 20.3241 34.6198 19.7007V9.37647H37.0448C37.6198 9.37647 38.0698 8.92759 38.0698 8.35402C38.0698 7.78046 37.6198 7.33157 37.0448 7.33157H34.6198V5.83531C34.6198 4.46373 35.1198 2.84278 37.5448 2.84278C38.1198 2.84278 38.5698 2.3939 38.5698 1.82033C38.5448 1.22182 38.0948 0.772949 37.5198 0.772949Z" fill="#4D4D4D"/>
<path d="M46.018 6.98169C44.393 6.98169 43.0181 7.65501 42.2431 8.75227V8.1787C42.2431 7.58019 41.7681 7.08144 41.1431 7.08144C40.5431 7.08144 40.0431 7.55525 40.0431 8.1787V19.6999C40.0431 20.2984 40.5181 20.7972 41.1431 20.7972C41.7431 20.7972 42.2431 20.3234 42.2431 19.6999V13.3408C42.2431 10.6725 43.6681 9.07646 46.018 9.07646C46.593 9.07646 47.068 8.60264 47.068 8.02907C47.093 7.4555 46.618 6.98169 46.018 6.98169Z" fill="#4D4D4D"/>
<path d="M59.3913 12.6421C59.3913 12.0187 59.2913 10.3977 58.3413 9.0511C57.3663 7.65459 55.8413 6.9314 53.7664 6.9314C49.9164 6.9314 47.7164 9.47505 47.7164 13.914C47.7164 18.5025 49.9164 20.9464 54.0414 20.9464C56.8163 20.9464 58.3413 19.5748 58.6163 19.3005C58.7913 19.1259 58.9913 18.9015 58.9913 18.5274C58.9913 17.9788 58.5413 17.5299 57.9913 17.5299C57.7163 17.5299 57.5413 17.6048 57.3663 17.7294C56.5663 18.3279 55.6413 18.9264 54.0664 18.9264C51.5914 18.9264 50.0164 17.3055 49.9414 14.6621H58.0663C59.3913 14.6372 59.3913 13.4401 59.3913 12.6421ZM53.7664 8.92642C56.0163 8.92642 57.1913 10.1982 57.2413 12.692H49.9664C50.1664 10.2731 51.5164 8.92642 53.7664 8.92642Z" fill="#4D4D4D"/>
<path d="M66.7443 12.8179C65.1193 12.2693 63.7193 11.7705 63.7193 10.5735C63.7193 9.25179 65.1943 9.05229 66.0693 9.05229C67.6443 9.05229 68.4192 9.60092 69.0442 10.1994C69.2442 10.3989 69.4942 10.4987 69.7692 10.4987C70.3192 10.4987 70.7692 10.0498 70.7692 9.50117C70.7692 9.20192 70.6442 9.00242 70.5442 8.85279C69.6192 7.63084 68.0442 6.95752 66.0693 6.95752C63.2693 6.95752 61.5443 8.35403 61.5443 10.5735C61.5443 13.2917 63.9443 14.1147 66.0443 14.8129C67.6442 15.3615 69.0192 15.8104 69.0192 16.9825C69.0192 18.5785 67.2443 18.8279 66.1693 18.8279C64.7193 18.8279 63.5943 18.379 62.6693 17.4813C62.3943 17.2069 62.0943 17.1571 61.9193 17.1571C61.3693 17.1571 60.9193 17.6059 60.9193 18.1546C60.9193 18.379 60.9943 18.5536 61.1693 18.8029C61.9943 19.8503 63.8693 20.9227 66.1693 20.9227C69.3192 20.9227 71.1942 19.4513 71.1942 17.0074C71.1942 14.364 68.8442 13.5411 66.7443 12.8179Z" fill="#4D4D4D"/>
<path d="M79.7173 6.9322C78.2173 6.9322 76.8673 7.53071 76.1173 8.47835V1.09677C76.1173 0.498265 75.6423 -0.000488281 75.0173 -0.000488281C74.4174 -0.000488281 73.9174 0.473327 73.9174 1.09677V19.7253C73.9174 20.3238 74.3924 20.8225 75.0173 20.8225C75.6173 20.8225 76.1173 20.3487 76.1173 19.7253V12.7178C76.1173 10.199 77.3423 8.92722 79.7173 8.92722C82.0173 8.92722 82.9673 9.97461 82.9673 12.5183V19.7253C82.9673 20.3238 83.4423 20.8225 84.0673 20.8225C84.6672 20.8225 85.1672 20.3487 85.1672 19.7253V12.1442C85.1172 8.67784 83.2923 6.9322 79.7173 6.9322Z" fill="#4D4D4D"/>
<path d="M103.343 7.10718C102.868 7.10718 102.493 7.38149 102.318 7.83037L99.193 16.7082L96.643 7.83037C96.543 7.48124 96.168 7.10718 95.618 7.10718C95.068 7.10718 94.693 7.48124 94.593 7.83037L92.043 16.6833L88.9181 7.80543C88.7431 7.35655 88.3681 7.10718 87.8931 7.10718C87.2931 7.10718 86.7931 7.58099 86.7931 8.20444C86.7931 8.35406 86.8181 8.50369 86.8931 8.65331L91.068 20.0997C91.243 20.5486 91.618 20.798 92.093 20.798C92.593 20.798 93.018 20.4738 93.143 20.0249L95.593 11.6209L98.043 20.0249C98.168 20.4738 98.618 20.798 99.093 20.798C99.568 20.798 99.943 20.5237 100.118 20.0748L104.293 8.62838C104.368 8.47875 104.393 8.30418 104.393 8.15456C104.418 7.58099 103.943 7.10718 103.343 7.10718Z" fill="#4D4D4D"/>
<path d="M111.292 6.9314C107.317 6.9314 105.142 9.42517 105.142 13.914C105.142 18.4526 107.317 20.9464 111.292 20.9464C115.267 20.9464 117.442 18.4526 117.442 13.914C117.442 9.40023 115.242 6.9314 111.292 6.9314ZM111.292 18.9514C108.642 18.9514 107.342 17.3055 107.342 13.9389C107.342 10.6222 108.667 8.95135 111.292 8.95135C113.917 8.95135 115.242 10.6222 115.242 13.9389C115.242 17.3055 113.942 18.9514 111.292 18.9514Z" fill="#4D4D4D"/>
<path d="M125.892 6.98169C124.267 6.98169 122.892 7.65501 122.117 8.75227V8.1787C122.117 7.58019 121.642 7.08144 121.017 7.08144C120.417 7.08144 119.917 7.55525 119.917 8.1787V19.6999C119.917 20.2984 120.392 20.7972 121.017 20.7972C121.617 20.7972 122.117 20.3234 122.117 19.6999V13.3408C122.117 10.6725 123.542 9.07646 125.892 9.07646C126.467 9.07646 126.942 8.60264 126.942 8.02907C126.942 7.4555 126.467 6.98169 125.892 6.98169Z" fill="#4D4D4D"/>
<path d="M134.192 12.6679L138.717 9.05191C139.092 8.75266 139.142 8.37859 139.142 8.17909C139.142 7.58058 138.667 7.08183 138.042 7.08183C137.867 7.08183 137.567 7.10677 137.292 7.35615L130.867 12.5931V1.09677C130.867 0.498265 130.392 -0.000488281 129.767 -0.000488281C129.167 -0.000488281 128.667 0.473327 128.667 1.09677V19.7253C128.667 20.3238 129.142 20.8225 129.767 20.8225C130.367 20.8225 130.867 20.3487 130.867 19.7253V15.2365L132.392 14.0145L137.317 20.3238C137.592 20.648 137.892 20.8225 138.242 20.8225C138.842 20.8225 139.342 20.3487 139.342 19.7253C139.342 19.5507 139.317 19.3013 139.117 19.0519L134.192 12.6679Z" fill="#4D4D4D"/>
<path d="M146.519 12.8179C144.894 12.2693 143.494 11.7705 143.494 10.5735C143.494 9.25179 144.969 9.05229 145.844 9.05229C147.419 9.05229 148.194 9.60092 148.819 10.1994C149.019 10.3989 149.269 10.4987 149.544 10.4987C150.094 10.4987 150.544 10.0498 150.544 9.50117C150.544 9.17698 150.369 8.95254 150.319 8.85279C149.394 7.63084 147.819 6.95752 145.844 6.95752C143.044 6.95752 141.319 8.35403 141.319 10.5735C141.319 13.2917 143.719 14.1147 145.819 14.8129C147.419 15.3615 148.794 15.8104 148.794 16.9825C148.794 18.5785 147.019 18.8279 145.944 18.8279C144.494 18.8279 143.369 18.379 142.444 17.4813C142.169 17.2069 141.894 17.1571 141.694 17.1571C141.144 17.1571 140.694 17.6059 140.694 18.1546C140.694 18.379 140.769 18.5536 140.944 18.8029C141.769 19.8503 143.644 20.9227 145.944 20.9227C149.094 20.9227 150.969 19.4513 150.969 17.0074C150.969 14.364 148.619 13.5411 146.519 12.8179Z" fill="#4D4D4D"/>
<path d="M1.12 19.1019C1.54499 21.87 2.84498 24.3637 4.71996 26.2341L9.09491 21.87C9.09491 17.456 11.3949 13.1667 15.4948 10.7976L1.12 19.1019Z" fill="#9B65C3"/>
<path d="M9.09491 21.8702C6.91994 21.8702 4.71996 21.3215 2.69498 20.1495C2.14498 19.8253 1.61999 19.4762 1.12 19.0771C1.54499 21.8452 2.84498 24.339 4.71996 26.2093L9.09491 21.8702Z" fill="#9B65C3"/>
<path d="M9.09358 21.8701L4.71863 26.2342C6.61861 28.1295 9.09358 29.4263 11.8686 29.8253L20.1685 15.4861C17.8185 19.5759 13.5185 21.8701 9.09358 21.8701Z" fill="#BE63C5"/>
<path d="M10.8186 28.2801C9.64358 26.2601 9.09358 24.0656 9.09358 21.896L4.71863 26.2601C6.61861 28.1554 9.09358 29.4521 11.8686 29.8511C11.4936 29.3524 11.1436 28.8287 10.8186 28.2801Z" fill="#BF63C6"/>
<path d="M25.3928 5.1106L15.5179 10.8213C11.4179 13.1904 6.54299 13.0159 2.71802 10.8213C1.61804 12.6917 0.993042 14.8862 0.993042 17.2054C0.993042 17.8538 1.04304 18.4772 1.14304 19.1007C1.64304 19.4997 2.16803 19.8488 2.71802 20.173C4.743 21.3451 6.94298 21.8937 9.11796 21.8937L25.6678 5.38491C25.5678 5.28516 25.4928 5.18541 25.3928 5.1106Z" fill="#3278B1"/>
<path d="M2.69312 20.1734C4.7181 21.3455 6.91808 21.8941 9.09306 21.8941C9.09306 17.4802 11.393 13.1909 15.493 10.8218L1.09314 19.1011C1.61813 19.4752 2.14313 19.8492 2.69312 20.1734Z" fill="#3278B2"/>
<path d="M2.69361 10.8218C1.59362 12.6921 0.968628 14.8866 0.968628 17.2058C0.968628 17.8542 1.01863 18.4777 1.11863 19.1011L15.5185 10.8218C11.3935 13.1659 6.51857 13.0163 2.69361 10.8218Z" fill="#45A4EC"/>
<path d="M25.667 5.36072C25.592 5.28591 25.492 5.18616 25.392 5.11135C25.267 5.0116 25.142 4.91184 24.992 4.83703C24.517 4.56272 23.967 4.41309 23.392 4.41309H13.7921C9.0422 4.41309 4.91724 6.98168 2.69226 10.7972C6.51722 12.9917 11.3922 13.1662 15.4921 10.7972C11.3922 13.1662 9.09219 17.4555 9.09219 21.8695C13.5171 21.8695 17.8171 19.5752 20.1921 15.4855L25.892 5.63504C25.817 5.53529 25.742 5.43554 25.667 5.36072Z" fill="#19BB7D"/>
<path d="M15.5171 10.8229L25.392 5.13711C25.267 5.03736 25.142 4.93761 24.992 4.86279L2.69226 10.8229C6.51722 13.0174 11.3922 13.1671 15.5171 10.8229Z" fill="#08C7FB"/>
<path d="M23.392 4.41309H13.7921C9.04219 4.41309 4.91724 6.98168 2.69226 10.7972L24.992 4.83703C24.517 4.58765 23.992 4.41309 23.392 4.41309Z" fill="#59F2F6"/>
<path d="M20.1935 15.4856L25.8935 5.63516C25.8185 5.53541 25.7435 5.46059 25.6435 5.36084L9.09363 21.8696C9.09363 24.0392 9.64362 26.2337 10.8186 28.2537C11.1436 28.8023 11.4936 29.326 11.8936 29.8248C12.5186 29.9245 13.1436 29.9744 13.7936 29.9744C16.1186 29.9744 18.3185 29.351 20.1935 28.2537C17.9935 24.4382 17.8185 19.5754 20.1935 15.4856Z" fill="#DA3757"/>
<path d="M9.09363 21.8701C9.09363 24.0397 9.64362 26.2342 10.8186 28.2542C11.1436 28.8028 11.4936 29.3265 11.8936 29.8253L20.1935 15.4861C17.8185 19.5759 13.5186 21.8701 9.09363 21.8701Z" fill="#D33C4E"/>
<path d="M20.1938 15.4861L11.8939 29.8502C12.5189 29.95 13.1439 29.9998 13.7939 29.9998C16.1189 29.9998 18.3189 29.3764 20.1938 28.2791C17.9939 24.4387 17.8189 19.5759 20.1938 15.4861Z" fill="#EE5A24"/>
<path d="M26.1701 6.03329C26.0951 5.88366 25.9951 5.75898 25.8951 5.63429C25.8201 5.53454 25.7451 5.45972 25.6451 5.35997C25.5701 5.28516 25.4701 5.18541 25.3701 5.1106L15.5202 10.8213C11.4202 13.1904 9.12024 17.4797 9.12024 21.8937C13.5452 21.8937 17.8451 19.5994 20.2201 15.5096C17.8451 19.5994 18.0201 24.4623 20.2201 28.2778C24.0451 26.0583 26.6201 21.9436 26.6201 17.2054V7.62931C26.5951 7.0308 26.4451 6.48217 26.1701 6.03329Z" fill="#8BDF55"/>
<path d="M25.3951 5.1106L15.5202 10.8213C11.4202 13.1904 9.12024 17.4797 9.12024 21.8937L25.6701 5.38491C25.5701 5.28516 25.4951 5.18541 25.3951 5.1106Z" fill="#25C16F"/>
<path d="M9.09363 21.8696C13.5186 21.8696 17.8185 19.5754 20.1935 15.4856L25.8935 5.63516C25.8185 5.53541 25.7435 5.46059 25.6435 5.36084L9.09363 21.8696Z" fill="#8BDF55"/>
<path d="M25.8943 5.63501L20.1944 15.4854C17.8194 19.5752 17.9944 24.4381 20.1944 28.2535L26.1693 6.00908C26.0943 5.88439 25.9943 5.7597 25.8943 5.63501Z" fill="#FFBB00"/>
<path d="M20.1945 28.2791C24.0194 26.0597 26.5944 21.945 26.5944 17.2068V7.63069C26.5944 7.05712 26.4444 6.50849 26.1694 6.03467L20.1945 28.2791Z" fill="#FFA800"/>
</g>
<defs>
<clipPath id="clip0_117_14983">
<rect width="150" height="30" fill="white" transform="translate(0.96875)"/>
</clipPath>
</defs>
</svg>
