<svg width="129" height="30" viewBox="0 0 129 30" fill="none" xmlns="http://www.w3.org/2000/svg">
<g clip-path="url(#clip0_117_14976)">
<path d="M39.353 22.1112C38.9085 21.926 38.5752 21.5557 38.5752 21.0371C38.5752 20.4075 39.0937 19.926 39.6863 19.926C39.8715 19.926 40.0196 19.9631 40.1307 20.0371C40.9085 20.4075 41.7604 20.6297 42.7974 20.6297C44.6863 20.6297 45.5752 19.7038 45.5752 18.0001V17.5557C44.7604 18.5186 43.8715 19.1112 42.427 19.1112C40.1678 19.1112 38.1307 17.4816 38.1307 14.5927V14.5557C38.1307 11.6668 40.2048 10.0371 42.427 10.0371C43.9455 10.0371 44.7974 10.6668 45.5752 11.4816V11.4075C45.5752 10.6668 46.2048 10.0371 46.9456 10.0371C47.6863 10.0371 48.3159 10.6668 48.3159 11.4075V17.6297C48.3159 19.3705 47.9085 20.6297 47.0937 21.4446C46.1678 22.3705 44.7974 22.7408 42.9085 22.7408C41.6122 22.8149 40.5011 22.5557 39.353 22.1112ZM45.5752 14.5557C45.5752 13.2223 44.5381 12.2594 43.2048 12.2594C41.8715 12.2594 40.8715 13.1853 40.8715 14.5186V14.5557C40.8715 15.889 41.8715 16.8149 43.2048 16.8149C44.5381 16.7779 45.5752 15.852 45.5752 14.5557ZM49.8344 11.4446C49.8344 10.7038 50.4641 10.0742 51.2048 10.0742C51.9456 10.0742 52.5752 10.7038 52.5752 11.4446V11.852C52.9826 10.889 53.6122 10.0742 54.427 10.0742C55.2789 10.0742 55.7604 10.6297 55.7604 11.4075C55.7604 12.1112 55.3159 12.5557 54.7233 12.6668C53.3159 13.0001 52.5752 14.0742 52.5752 16.0001V18.5927C52.5752 19.3334 51.9456 19.9631 51.2048 19.9631C50.4641 19.9631 49.8344 19.3334 49.8344 18.5927V11.4446ZM55.4641 17.0371C55.4641 14.889 57.0567 13.889 59.39 13.889C60.353 13.889 61.0937 14.0371 61.7604 14.2964V14.1483C61.7604 13.0001 61.0567 12.3705 59.6863 12.3705C58.9456 12.3705 58.3159 12.4816 57.7974 12.6297C57.6493 12.7038 57.5381 12.7038 57.39 12.7038C56.7604 12.7038 56.2418 12.2223 56.2418 11.5927C56.2418 11.1112 56.5381 10.6668 56.9826 10.5186C57.8715 10.1853 58.7604 10.0001 60.0937 10.0001C61.6122 10.0001 62.6863 10.4075 63.353 11.0742C64.0567 11.7779 64.39 12.852 64.39 14.1853V18.5927C64.39 19.3334 63.7974 19.889 63.0567 19.889C62.2789 19.889 61.7604 19.3334 61.7604 18.7409V18.7038C61.0937 19.4446 60.1678 19.926 58.8344 19.926C56.9826 20.0371 55.4641 18.9631 55.4641 17.0371ZM61.7604 16.4446V15.9631C61.3159 15.7409 60.6863 15.5927 59.9826 15.5927C58.7974 15.5927 58.0937 16.0371 58.0937 16.926V16.9631C58.0937 17.7038 58.7233 18.1483 59.6122 18.1483C60.9085 18.1483 61.7604 17.4446 61.7604 16.4446ZM65.8344 11.4446C65.8344 10.7038 66.4641 10.0742 67.2048 10.0742C67.9456 10.0742 68.5752 10.7038 68.5752 11.4446V11.5557C69.2048 10.7408 70.0567 10.0001 71.4641 10.0001C72.7233 10.0001 73.6863 10.5557 74.2048 11.5186C75.0567 10.5557 76.0567 10.0001 77.353 10.0001C79.39 10.0001 80.6122 11.2223 80.6122 13.5557V18.6297C80.6122 19.3705 79.9826 20.0001 79.2419 20.0001C78.5011 20.0001 77.8715 19.3705 77.8715 18.6297V14.4816C77.8715 13.1853 77.2789 12.5186 76.2789 12.5186C75.2419 12.5186 74.6122 13.1853 74.6122 14.4816V18.6297C74.6122 19.3705 73.9826 20.0001 73.2419 20.0001C72.5011 20.0001 71.8715 19.3705 71.8715 18.6297V14.4816C71.8715 13.1853 71.2789 12.5186 70.2789 12.5186C69.2419 12.5186 68.6122 13.1853 68.6122 14.4816V18.6297C68.6122 19.3705 67.9826 20.0001 67.2418 20.0001C66.5011 20.0001 65.8715 19.3705 65.8715 18.6297L65.8344 11.4446ZM82.0937 11.4446C82.0937 10.7038 82.7233 10.0742 83.4641 10.0742C84.2048 10.0742 84.8344 10.7038 84.8344 11.4446V11.5557C85.4641 10.7408 86.3159 10.0001 87.7233 10.0001C88.9826 10.0001 89.9456 10.5557 90.4641 11.5186C91.3159 10.5557 92.3159 10.0001 93.6122 10.0001C95.6493 10.0001 96.8715 11.2223 96.8715 13.5557V18.6297C96.8715 19.3705 96.2419 20.0001 95.5011 20.0001C94.7604 20.0001 94.1307 19.3705 94.1307 18.6297V14.4816C94.1307 13.1853 93.5382 12.5186 92.5382 12.5186C91.5011 12.5186 90.8715 13.1853 90.8715 14.4816V18.6297C90.8715 19.3705 90.2419 20.0001 89.5011 20.0001C88.7604 20.0001 88.1307 19.3705 88.1307 18.6297V14.4816C88.1307 13.1853 87.5382 12.5186 86.5382 12.5186C85.5011 12.5186 84.8715 13.1853 84.8715 14.4816V18.6297C84.8715 19.3705 84.2419 20.0001 83.5011 20.0001C82.7604 20.0001 82.1307 19.3705 82.1307 18.6297L82.0937 11.4446ZM97.7974 17.0371C97.7974 14.889 99.39 13.889 101.723 13.889C102.686 13.889 103.427 14.0371 104.094 14.2964V14.1483C104.094 13.0001 103.39 12.3705 102.02 12.3705C101.279 12.3705 100.649 12.4816 100.131 12.6297C99.9826 12.7038 99.8715 12.7038 99.7233 12.7038C99.0937 12.7038 98.5752 12.2223 98.5752 11.5927C98.5752 11.1112 98.8715 10.6668 99.3159 10.5186C100.205 10.1853 101.094 10.0001 102.427 10.0001C103.946 10.0001 105.02 10.4075 105.686 11.0742C106.39 11.7779 106.723 12.852 106.723 14.1853V18.5927C106.723 19.3334 106.131 19.889 105.39 19.889C104.612 19.889 104.094 19.3334 104.094 18.7409V18.7038C103.427 19.4446 102.501 19.926 101.168 19.926C99.2789 20.0371 97.7974 18.9631 97.7974 17.0371ZM104.094 16.4446V15.9631C103.649 15.7409 103.02 15.5927 102.316 15.5927C101.131 15.5927 100.427 16.0371 100.427 16.926V16.9631C100.427 17.7038 101.057 18.1483 101.946 18.1483C103.242 18.1483 104.094 17.4446 104.094 16.4446ZM108.168 11.4446C108.168 10.7038 108.797 10.0742 109.538 10.0742C110.279 10.0742 110.909 10.7038 110.909 11.4446V11.852C111.316 10.889 111.946 10.0742 112.76 10.0742C113.612 10.0742 114.094 10.6297 114.094 11.4075C114.094 12.1112 113.649 12.5557 113.057 12.6668C111.649 13.0001 110.909 14.0742 110.909 16.0001V18.5927C110.909 19.3334 110.279 19.9631 109.538 19.9631C108.797 19.9631 108.168 19.3334 108.168 18.5927V11.4446ZM114.946 7.92603C114.946 7.18529 115.575 6.55566 116.316 6.55566C117.057 6.55566 117.686 7.18529 117.686 7.92603V18.5927C117.686 19.3334 117.057 19.9631 116.316 19.9631C115.575 19.9631 114.946 19.3334 114.946 18.5927V7.92603ZM119.871 22.5186C119.464 22.3705 118.983 22.0742 118.983 21.3705C118.983 20.7038 119.501 20.2594 120.057 20.2594C120.279 20.2594 120.427 20.2964 120.501 20.3334C120.723 20.4075 120.909 20.4446 121.094 20.4446C121.575 20.4446 121.797 20.3334 122.057 19.852L122.168 19.6297L118.871 11.9631C118.797 11.7779 118.723 11.5186 118.723 11.3334C118.723 10.5557 119.316 10.0371 120.094 10.0371C120.76 10.0371 121.168 10.4446 121.39 11.0742L123.464 16.7038L125.501 11.0742C125.723 10.4816 126.131 10.0371 126.797 10.0371C127.501 10.0371 128.094 10.5927 128.094 11.2964C128.094 11.5186 128.02 11.8149 127.946 11.9631L124.538 20.0742C123.723 22.0371 122.909 22.7779 121.279 22.7779C120.76 22.8149 120.353 22.7038 119.871 22.5186Z" fill="#0E101A"/>
<path d="M15.5011 30C23.7854 30 30.5011 23.2843 30.5011 15C30.5011 6.71573 23.7854 0 15.5011 0C7.21683 0 0.501099 6.71573 0.501099 15C0.501099 23.2843 7.21683 30 15.5011 30Z" fill="#15C39A"/>
<path d="M18.4633 17.0372C17.8336 17.0372 17.3522 17.5927 17.4633 18.2594C17.5744 18.7409 18.0188 19.0742 18.5003 19.0742H20.0559L20.9818 18.9261C19.5003 21.0742 17.0188 22.0742 14.2411 21.5927C11.9818 21.2224 10.0559 19.7039 9.24105 17.5927C7.3892 12.7779 10.9077 8.1483 15.5003 8.1483C17.8707 8.1483 20.0188 9.55571 21.204 11.2594V11.2964C21.5373 11.7409 22.167 11.889 22.6114 11.5557C23.0188 11.2594 23.167 10.6668 22.9077 10.2224C21.241 7.62978 18.241 5.96311 14.8707 6.18534C10.5003 6.55571 6.94475 10.1483 6.6855 14.5557C6.3892 19.6668 10.4262 23.815 15.5003 23.815C18.1299 23.815 20.5373 22.6668 22.1299 20.7779L21.9448 21.852V22.815C21.9448 23.2965 22.2781 23.7779 22.7596 23.852C23.4262 24.0002 23.9818 23.4446 23.9818 22.852V17.0742H18.4633V17.0372Z" fill="white"/>
</g>
<defs>
<clipPath id="clip0_117_14976">
<rect width="127.593" height="30" fill="white" transform="translate(0.501099)"/>
</clipPath>
</defs>
</svg>
