<svg width="94" height="30" viewBox="0 0 94 30" fill="none" xmlns="http://www.w3.org/2000/svg">
<g clip-path="url(#clip0_117_15014)">
<path d="M15.521 29.1046C7.48672 29.1046 0.96875 22.5866 0.96875 14.5523C0.96875 6.51797 7.48205 0 15.521 0C23.56 0 30.0733 6.5133 30.0733 14.5523C30.0733 22.5913 23.5553 29.1046 15.521 29.1046Z" fill="white"/>
<path d="M26.9936 7.1106C27.2689 8.00641 27.4229 8.95355 27.4229 9.93801C27.4229 13.1153 25.8599 15.9054 23.485 17.6551C19.3559 20.7018 13.3372 20.7064 5.02759 23.3239C7.53772 26.3239 11.3076 28.2322 15.5207 28.2322C23.0744 28.2322 29.2005 22.1062 29.2005 14.5524C29.2005 11.809 28.3887 9.25682 26.9936 7.1106Z" fill="#0164A8"/>
<path d="M23.7239 3.60665C21.4377 1.88968 18.5963 0.872559 15.5216 0.872559C7.96785 0.872559 1.8418 6.9986 1.8418 14.5523C1.8418 17.5944 2.83559 20.3984 4.51057 22.6706C13.7113 19.9925 20.9758 12.7747 23.7239 3.60665Z" fill="#ED3136"/>
<path d="M62.5135 14.3283V14.3003C62.5041 14.179 62.4808 13.9831 62.4575 13.7684C62.4062 13.3812 62.3222 12.9986 62.2055 12.63C61.3237 9.84927 58.9629 8.05298 56.1868 8.05298C55.9115 8.05298 55.6223 8.07164 55.3423 8.10897C51.7824 8.5662 49.3656 11.7855 49.8415 15.4434C50.2707 18.7514 52.9348 21.0189 56.1775 21.0189C56.4527 21.0189 56.7374 21.0002 57.022 20.9676C58.7529 20.7483 60.2693 20.0251 61.4077 18.6208C61.473 18.5368 61.5057 18.4388 61.4917 18.3455C61.4824 18.2662 61.4357 18.1868 61.347 18.1262C61.1558 17.9909 60.4746 17.6596 60.106 17.4823C59.994 17.4263 59.91 17.3843 59.8587 17.361C59.7467 17.305 59.6674 17.277 59.5928 17.277C59.5041 17.277 59.4201 17.3237 59.3361 17.4217C58.6036 18.2755 57.6752 18.7234 56.728 18.8447C56.5414 18.868 56.3594 18.882 56.1821 18.882C54.4558 18.882 52.7109 17.7249 52.207 16.1386L52.193 16.0966L52.2303 16.078C52.3189 16.0313 53.1261 15.658 54.3252 15.658C54.4745 15.658 54.6238 15.6627 54.7731 15.6767C55.1184 15.7 55.4636 15.7467 55.8275 15.7933C56.4994 15.882 57.1993 15.9753 58.0111 15.9753C58.515 15.9753 59.0049 15.938 59.5088 15.868C61.487 15.4901 62.2709 14.9349 62.2755 14.9255C62.5415 14.7482 62.5321 14.5989 62.5135 14.3283ZM60.2786 13.5212C59.952 13.6285 59.5041 13.7171 58.9489 13.7871C58.6829 13.8244 58.3937 13.8384 58.0484 13.8384C57.4699 13.8384 56.8447 13.7918 56.2381 13.7451H56.2148C55.6549 13.7031 55.123 13.6611 54.6145 13.6611C54.2505 13.6611 53.9146 13.6845 53.5973 13.7218C52.6455 13.8431 51.8944 14.1417 51.8944 14.1417L51.9037 14.0624C52.0903 12.1588 53.6907 10.5258 55.6316 10.2692C55.8089 10.2458 55.9955 10.2365 56.1775 10.2365C58.0064 10.2365 59.7794 11.6222 60.3066 13.4605L60.3159 13.5072L60.2786 13.5212Z" fill="#0164A8"/>
<path d="M93.5029 8.78542C93.5029 8.61746 93.3676 8.48682 93.2043 8.48682H91.5667C91.4034 8.48682 91.2681 8.62212 91.2681 8.78542V20.417C91.2681 20.5803 91.4034 20.7156 91.5667 20.7156H93.2043C93.3676 20.7156 93.5029 20.5803 93.5029 20.417V8.78542Z" fill="#0164A8"/>
<path d="M92.3832 4.33447C91.5714 4.33447 90.9042 4.997 90.9042 5.8135C90.9042 6.62999 91.5714 7.28785 92.3832 7.28785C93.195 7.28785 93.8622 6.62532 93.8622 5.8135C93.8622 5.00167 93.1997 4.33447 92.3832 4.33447Z" fill="#0164A8"/>
<path d="M70.6412 21.0282C70.7438 21.0329 70.8511 21.0375 70.9538 21.0375C72.6334 21.0375 74.2011 20.389 75.3628 19.2179C76.5386 18.0282 77.1871 16.3905 77.1871 14.6129C77.1871 10.9363 74.355 8.05762 70.7391 8.05762C67.7951 8.05762 65.3129 9.99388 64.5524 12.8773C64.4218 13.3672 64.2911 14.6129 64.2911 15.854V24.9847C64.2911 25.1527 64.4218 25.288 64.5897 25.288L66.2181 25.2833C66.386 25.2833 66.5213 25.148 66.5213 24.9847V19.2319L66.6053 19.3159C67.3985 20.0811 68.8775 20.9442 70.6412 21.0282ZM70.7111 10.2645C73.03 10.2645 74.8496 12.1727 74.8496 14.6082C74.8496 17.0437 73.1233 18.91 70.8371 18.91C69.68 18.91 68.6116 18.4948 67.8277 17.7482C67.0206 16.9784 66.5727 15.8866 66.5727 14.6876C66.5727 12.2474 68.4296 10.2645 70.7111 10.2645Z" fill="#0164A8"/>
<path d="M41.4623 21.0282C41.565 21.0329 41.6723 21.0375 41.7749 21.0375C43.4592 21.0375 45.0222 20.389 46.184 19.2179C47.3597 18.0282 48.0083 16.3905 48.0083 14.6129C48.0083 10.9363 45.1715 8.05762 41.5603 8.05762C38.6162 8.05762 36.1294 9.99388 35.3736 12.8773C35.2429 13.3672 35.1123 14.6129 35.1123 15.854V24.9847C35.1123 25.1527 35.2476 25.288 35.4109 25.288L37.0392 25.2833C37.2072 25.2833 37.3425 25.148 37.3425 24.9847L37.3332 19.2226L37.4172 19.3066C38.215 20.0811 39.694 20.9442 41.4623 21.0282ZM41.5323 10.2645C43.8511 10.2645 45.6708 12.1727 45.6708 14.6082C45.6708 17.0437 43.9491 18.91 41.6583 18.91C40.5012 18.91 39.4327 18.4948 38.6489 17.7482C37.8417 16.9784 37.3938 15.8866 37.3938 14.6876C37.3892 12.2474 39.2508 10.2645 41.5323 10.2645Z" fill="#0164A8"/>
<path d="M78.7507 18.9893C80.1644 20.2817 81.7088 21.0189 83.715 21.0189H83.7757C87.2376 20.9956 88.7866 19.106 88.7866 17.2444C88.7866 14.6689 86.3511 13.9644 85.6093 13.8104C85.3713 13.7638 85.1194 13.7171 84.8674 13.6658C84.2656 13.5492 83.6404 13.4278 83.0712 13.2739C82.6746 13.1666 81.3729 12.7327 81.3729 11.7622C81.3729 10.6938 82.5579 10.1199 83.673 10.1199C84.6108 10.1199 85.39 10.2785 86.3885 11.0577C86.4631 11.1183 86.5751 11.1883 86.7104 11.1883C86.8084 11.1883 86.9063 11.151 87.0043 11.081C87.2796 10.8757 87.7882 10.4511 88.1241 10.1152C88.2034 10.0359 88.2407 9.94725 88.2361 9.85393C88.2267 9.71396 88.1241 9.59732 88.0681 9.55066C86.7337 8.49155 85.446 8.05764 83.6357 8.05298H83.6264C81.0323 8.05298 79.0727 9.71863 79.0727 11.9255C79.0727 13.6751 80.5097 14.9209 83.1225 15.4341L84.7555 15.7467C85.8286 15.9426 86.4351 16.5119 86.4118 17.3097C86.3931 18.0889 85.4367 18.896 83.869 18.896C82.5859 18.896 81.4615 18.3968 80.5144 17.5383L80.5004 17.5243C80.4351 17.4637 80.3557 17.389 80.2484 17.389C80.1738 17.389 80.0945 17.4263 80.0058 17.4917C79.9078 17.571 78.8161 18.4341 78.6994 18.5554C78.6481 18.6114 78.6201 18.6721 78.6248 18.7374C78.6248 18.84 78.6901 18.9334 78.7507 18.9893Z" fill="#0164A8"/>
</g>
<defs>
<clipPath id="clip0_117_15014">
<rect width="92.8938" height="29.1046" fill="white" transform="translate(0.96875)"/>
</clipPath>
</defs>
</svg>
