<svg xmlns="http://www.w3.org/2000/svg" width="20" height="16" viewBox="0 0 20 16" fill="none">
  <path d="M14.6472 15.6984C15.3 15.6984 15.8341 15.1684 15.7827 14.5176C15.6591 12.9535 15.2905 11.4161 14.6882 9.96204C13.9349 8.14337 12.8307 6.49089 11.4388 5.09895C10.0468 3.707 8.39435 2.60285 6.57569 1.84954C5.12166 1.24726 3.58418 0.878668 2.02011 0.755076C1.36932 0.703652 0.839287 1.23771 0.839287 1.89052L0.839287 14.5164C0.839287 15.1692 1.3685 15.6984 2.02132 15.6984H14.6472Z" fill="#FFBA1C"></path>
  <path d="M8.68391 15.699C8.0311 15.699 7.49568 15.1685 7.56175 14.519C7.67633 13.3928 7.95454 12.2871 8.38936 11.2374C8.97527 9.82284 9.83406 8.53758 10.9167 7.45496C11.9993 6.37233 13.2846 5.51355 14.6991 4.92764C15.7488 4.49282 16.8545 4.21461 17.9807 4.10003C18.6302 4.03396 19.1607 4.56937 19.1607 5.22219V14.517C19.1607 15.1698 18.6315 15.699 17.9787 15.699H8.68391Z" fill="#246EF6"></path>
  <path fill-rule="evenodd" clip-rule="evenodd" d="M14.6877 9.96223C15.441 11.7809 15.8287 13.7301 15.8287 15.6986H7.50105C7.50107 14.1676 7.80264 12.6516 8.38853 11.2371C8.97444 9.82262 9.83323 8.53736 10.9159 7.45474C11.3823 6.98833 11.8863 6.56348 12.422 6.18408C13.3575 7.32295 14.1216 8.59567 14.6877 9.96223Z" fill="#035BFF"></path>
</svg>