<svg xmlns="http://www.w3.org/2000/svg" width="22" height="19" viewBox="0 0 22 19" fill="none">
  <rect x="6.9873" y="0.375671" width="9.63053" height="9.63053" rx="4.81526" fill="#246EF6"></rect>
  <path d="M8.1564 5.19067C3.6676 5.19067 0.0318794 8.78206 0.0318794 13.2161V17.2288C0.0318794 17.6742 0.397482 18.0314 0.844332 18.0314H9.7813C16.5125 18.0314 21.9681 12.6423 21.9681 5.99322C21.9681 5.55182 21.6025 5.19067 21.1556 5.19067H8.1564Z" fill="#FFBA1C"></path>
  <path fill-rule="evenodd" clip-rule="evenodd" d="M16.6177 5.19067C16.6177 5.19076 16.6177 5.19084 16.6177 5.19093C16.6177 7.85032 14.4619 10.0062 11.8025 10.0062C9.17045 10.0062 7.03165 7.89449 6.98788 5.2729C7.36929 5.21872 7.75928 5.19067 8.15593 5.19067H16.6177Z" fill="#035BFF"></path>
</svg>