<svg xmlns="http://www.w3.org/2000/svg" width="20" height="24" viewBox="0 0 20 24" fill="none">
  <circle cx="10.7129" cy="9.55942" r="8.57309" fill="#FFBA1C"></circle>
  <path fill-rule="evenodd" clip-rule="evenodd" d="M11.6342 9.95046C11.8862 10.1706 12.091 10.4396 12.2362 10.7411C12.3814 11.0427 12.4639 11.3705 12.4789 11.7048L12.4808 11.8742L12.2667 21.0035C12.252 21.6318 11.9989 22.231 11.5588 22.6797C11.1186 23.1283 10.5244 23.3928 9.89646 23.4195L9.73354 23.421L3.13146 23.2666C2.50315 23.2519 1.90395 22.9988 1.45532 22.5587C1.00669 22.1185 0.742191 21.5243 0.715435 20.8964L0.713989 20.7334L0.926857 11.6029C0.934665 11.2685 1.01013 10.9392 1.1487 10.6348C1.28727 10.3304 1.48607 10.0572 1.73311 9.83168L1.8618 9.72142L5.22713 7.0484C5.6607 6.70378 6.19729 6.51445 6.75113 6.51068C7.30497 6.5069 7.84409 6.6889 8.28232 7.02758L8.39687 7.12251L11.6342 9.95046Z" fill="#246EF6"></path>
  <path d="M12.3341 18.1325C7.2251 18.0889 2.99148 14.376 2.13986 9.50058L5.22716 7.0484C5.66074 6.70378 6.19732 6.51445 6.75116 6.51068C7.305 6.5069 7.84412 6.6889 8.28235 7.02758L8.3969 7.12251L11.6342 9.95046C11.8862 10.1706 12.091 10.4396 12.2362 10.7411C12.3814 11.0427 12.464 11.3705 12.4789 11.7048L12.4808 11.8742L12.3341 18.1325Z" fill="#035BFF"></path>
</svg>