<svg width="20" height="20" viewBox="0 0 20 20" fill="none" xmlns="http://www.w3.org/2000/svg">
<path d="M13.071 4.7556C14.3644 4.49466 15.5046 5.63487 15.2436 6.92824L13.0483 17.8198C12.759 19.2607 10.9778 19.7996 9.93399 18.7615L1.24342 10.0652C0.19964 9.02147 0.738546 7.24024 2.18508 6.95094L13.0767 4.7556H13.071Z" fill="#FFBA1C"></path>
<path d="M17.5464 0.728074C18.5732 0.523857 19.4751 1.42582 19.2709 2.45257L17.5294 11.0864C17.2968 12.2323 15.8843 12.6578 15.0618 11.8295L8.16944 4.93721C7.34123 4.109 7.77235 2.6965 8.91256 2.46959L17.5464 0.728074Z" fill="#246EF6"></path>
<path fill-rule="evenodd" clip-rule="evenodd" d="M15.2442 6.93459C15.5051 5.64122 14.3649 4.50101 13.0715 4.76195L8.81702 5.61853L14.3876 11.1891L15.2442 6.93459V6.93459Z" fill="#035BFF"></path>
</svg>