<svg xmlns="http://www.w3.org/2000/svg" width="20" height="20" viewBox="0 0 20 20" fill="none">
  <path d="M18.0354 0.723633H12.6915C11.5315 0.723633 10.9515 2.12477 11.7727 2.94591L17.1165 8.2898C17.9377 9.11093 19.3388 8.53092 19.3388 7.37091V2.02702C19.3388 1.31016 18.7588 0.723633 18.0354 0.723633Z" fill="#246EF6"></path>
  <path d="M1.5413 11.464L8.59263 18.5153C9.41376 19.3364 10.8149 18.7564 10.8149 17.5964V15.7782L4.4283 9.2417H2.46019C1.30017 9.2417 0.720165 10.6428 1.5413 11.464Z" fill="#246EF6"></path>
  <path d="M15.1877 3.5647H1.96479C0.811292 3.5647 0.231285 4.95281 1.03287 5.77394L4.42167 9.24095H9.50489C10.2283 9.24095 10.8083 9.82747 10.8083 10.5443V15.7709L14.2492 19.2901C15.0638 20.1242 16.4845 19.5442 16.4845 18.3777V4.86808C16.4845 4.1447 15.898 3.5647 15.1811 3.5647H15.1877Z" fill="#FFBA1C"></path>
  <path d="M16.4974 7.67705V4.86174C16.4974 4.14487 15.9174 3.55835 15.194 3.55835H12.3852L16.4974 7.67054V7.67705Z" fill="#035BFF"></path>
</svg>