
<svg width="171" height="25" viewBox="0 0 171 28" fill="none" xmlns="http://www.w3.org/2000/svg">
<path d="M31.0705 5.47065V16.5331C31.0705 16.8923 31.3588 17.1976 31.698 17.1976C31.7998 17.1976 31.9185 17.1617 32.0033 17.1078L41.0599 11.5766C41.3652 11.397 41.467 10.9839 41.2974 10.6786C41.2465 10.5709 41.1617 10.499 41.0599 10.4272L32.0033 4.89598C31.698 4.7164 31.3249 4.82415 31.1553 5.1474C31.0875 5.25515 31.0705 5.3629 31.0705 5.47065Z" fill="#6346FE"></path>
<path d="M10.8035 22.1543V11.0918C10.8035 10.7326 10.5322 10.4273 10.176 10.4273C10.0573 10.4273 9.95554 10.4633 9.85378 10.5171L0.814115 16.0484C0.508835 16.2279 0.407075 16.641 0.593635 16.9642C0.644515 17.072 0.729315 17.1438 0.814115 17.1977L9.87074 22.7289C10.176 22.9085 10.5491 22.8008 10.7187 22.4775C10.7696 22.3877 10.8035 22.262 10.8035 22.1543Z" fill="#F40753"></path>
<path d="M15.7899 14.7914V25.8539C15.7899 26.213 16.0782 26.5183 16.4174 26.5183C16.5191 26.5183 16.6379 26.4824 16.7227 26.4285L25.7623 20.8973C26.0676 20.7177 26.1693 20.3047 25.9828 19.9994C25.9319 19.8916 25.8471 19.8198 25.7623 19.7659L16.7227 14.2347C16.4174 14.0551 16.0443 14.1628 15.8747 14.4861C15.8238 14.5759 15.7899 14.6836 15.7899 14.7914Z" fill="#FE9408"></path>
<path d="M26.1186 12.8516V1.78918C26.1186 1.43001 25.8302 1.12471 25.491 1.12471C25.3893 1.12471 25.2706 1.16063 25.1858 1.2145L16.1291 6.74573C15.8238 6.92532 15.7221 7.33837 15.9086 7.64366C15.9595 7.75141 16.0443 7.82325 16.1291 7.87712L25.1858 13.4084C25.491 13.5879 25.8642 13.4802 26.0338 13.1749C26.1016 13.0851 26.1186 12.9773 26.1186 12.8516Z" fill="#32BAB9"></path>
<path d="M82.6627 26.5362H79.9661C79.576 26.5362 79.2538 26.195 79.2538 25.7819V8.82908C79.2538 8.41603 79.576 8.07482 79.9661 8.07482H82.6627C83.0528 8.07482 83.3751 8.41603 83.3751 8.82908V25.7999C83.3751 26.2129 83.0528 26.5362 82.6627 26.5362Z" fill="#001F41"></path>
<path d="M95.6032 5.9196C101.505 5.9196 104.846 10.3554 104.846 16.5511V17.0539C104.846 17.4669 104.524 17.8081 104.134 17.8081H90.6509C90.4473 17.8081 90.2947 17.9698 90.2947 18.1853C90.2947 18.2032 90.2947 18.2212 90.2947 18.2571C90.8374 21.3819 93.3136 22.9623 95.9424 22.9623C97.808 22.9802 99.6227 22.2619 101.013 20.9689C101.302 20.6995 101.76 20.7354 102.014 21.0586L103.591 23.052C103.829 23.3573 103.812 23.8063 103.54 24.0757C101.692 25.8536 99.2665 27.0209 95.9933 27.0209C89.9046 27.0209 86.0716 22.7467 86.0716 16.5511C86.0547 10.6427 89.735 5.9196 95.6032 5.9196ZM95.5184 9.79864C92.6691 9.79864 90.9561 11.379 90.3625 14.0548C90.3117 14.2524 90.4304 14.4499 90.6339 14.5038C90.6508 14.5038 90.6848 14.5217 90.7017 14.5217H99.9449C100.148 14.5217 100.301 14.3601 100.301 14.1446C100.301 14.1266 100.301 14.1087 100.301 14.0907C99.911 11.5227 98.3337 9.79864 95.5184 9.79864Z" fill="#001F41"></path>
<path d="M141.022 5.9196C146.924 5.9196 150.265 10.3554 150.265 16.5511V17.0539C150.265 17.4669 149.943 17.8082 149.553 17.8082H136.07C135.883 17.8082 135.714 17.9877 135.731 18.1853C135.731 18.2032 135.731 18.2212 135.731 18.2392C136.273 21.3639 138.75 22.9443 141.378 22.9443C143.244 22.9623 145.042 22.2439 146.449 20.9509C146.738 20.6815 147.196 20.7174 147.45 21.0407L149.027 23.0341C149.265 23.3394 149.248 23.7883 148.96 24.0577C147.111 25.8356 144.686 27.0029 141.412 27.0029C135.324 27.0029 131.491 22.7288 131.491 16.5331C131.474 10.6427 135.171 5.9196 141.022 5.9196ZM140.937 9.79864C138.088 9.79864 136.375 11.379 135.782 14.0548C135.731 14.2524 135.849 14.4499 136.053 14.5038C136.07 14.5038 136.104 14.5217 136.121 14.5217H145.364C145.568 14.5217 145.72 14.3601 145.72 14.1446C145.72 14.1267 145.72 14.1087 145.72 14.0907C145.33 11.5227 143.753 9.79864 140.937 9.79864Z" fill="#001F41"></path>
<path d="M111.02 26.5361H108.256C107.866 26.5361 107.543 26.1949 107.543 25.7819V1.897C107.543 1.48396 107.866 1.14274 108.256 1.14274H111.02C111.41 1.14274 111.733 1.48396 111.733 1.897V25.7998C111.733 26.2129 111.41 26.5361 111.02 26.5361Z" fill="#001F41"></path>
<path d="M122.01 5.9196C125.148 5.9196 127.471 6.99711 129.1 9.02642C129.354 9.34968 129.32 9.8166 129.015 10.086L127.081 11.81C126.793 12.0614 126.386 12.0435 126.132 11.7741C125.046 10.6247 123.588 9.92435 121.705 9.92435C119.806 9.92435 118.618 10.6427 118.618 11.9357C118.618 13.3006 119.873 13.6238 123.113 14.4319C126.912 15.4017 129.574 16.569 129.574 20.6276C129.574 24.7761 126.759 27.0209 121.858 27.0209C118.55 27.0209 115.328 25.656 113.683 23.4292C113.463 23.1239 113.496 22.6749 113.768 22.4055L115.684 20.6097C115.973 20.3403 116.431 20.3762 116.685 20.6815C117.872 22.0823 119.653 23.07 122.163 23.07C124.181 23.07 125.385 22.3517 125.385 20.8611C125.385 19.3705 124.215 19.0652 121.179 18.3289C117.906 17.5567 114.446 16.3535 114.446 12.0794C114.446 8.25421 117.329 5.9196 122.01 5.9196Z" fill="#001F41"></path>
<path d="M153.657 6.40455H156.235C156.625 6.40455 156.948 6.74576 156.948 7.15881V8.34407C156.948 8.54162 157.1 8.7212 157.304 8.7212C157.406 8.7212 157.507 8.66733 157.575 8.59549C159 6.8176 160.95 5.93763 163.223 5.93763C167.599 5.93763 170.109 8.95466 170.109 14.1986V25.8177C170.109 26.2308 169.786 26.572 169.396 26.572H166.632C166.242 26.572 165.92 26.2308 165.92 25.8177V14.9528C165.92 11.7742 164.478 10.0501 161.781 10.0501C158.695 10.0501 157.066 12.4566 157.066 17.054V25.8177C157.066 26.2308 156.744 26.572 156.354 26.572H153.657C153.267 26.572 152.945 26.2308 152.945 25.8177V7.15881C152.962 6.74576 153.267 6.40455 153.657 6.40455Z" fill="#001F41"></path>
<path d="M78.7451 3.63899C78.6942 2.18434 79.7796 0.963163 81.1364 0.927246C81.1873 0.927246 81.2552 0.927246 81.306 0.927246C82.7985 0.927246 83.867 2.07659 83.867 3.63899C83.867 5.20138 82.7816 6.35073 81.306 6.35073C79.8305 6.35073 78.7451 5.21934 78.7451 3.63899Z" fill="#001F41"></path>
<path d="M52.3722 1.14274H55.2554C55.6624 1.14274 56.0525 1.32233 56.3239 1.64558L70.5872 18.8858C70.7229 19.0474 70.9434 19.0654 71.0791 18.9217C71.1639 18.8499 71.1978 18.7421 71.1978 18.6344V1.897C71.1978 1.48396 71.52 1.1607 71.8932 1.14274H74.8103C75.2003 1.14274 75.5226 1.48396 75.5226 1.897V25.7998C75.5226 26.2129 75.2003 26.5541 74.8103 26.5541H71.8762C71.4691 26.5541 71.0791 26.3745 70.8077 26.0333L56.6122 8.829C56.4765 8.66738 56.256 8.64942 56.1203 8.79309C56.0356 8.86492 56.0016 8.97267 56.0016 9.08042V25.7998C56.0016 26.2129 55.6794 26.5541 55.2893 26.5541H52.3722C51.9821 26.5541 51.6599 26.2129 51.6599 25.7998V1.897C51.6599 1.48396 51.9821 1.14274 52.3722 1.14274Z" fill="#001F41"></path>
</svg>