
<svg class="hnm-logo" width="100%" height="45px" viewBox="0 0 84 54" fill="none" xmlns="http://www.w3.org/2000/svg">
<path fill-rule="evenodd" clip-rule="evenodd" d="M39.2602 7.21401C37.9055 7.63089 35.5579 8.44399 35.3789 8.55827C35.2695 8.62816 35.0782 8.86861 34.9539 9.09262C34.6103 9.71131 31.9041 15.9708 30.3801 19.6716L29.0266 22.9583L28.1822 23.102C26.9966 23.3037 23.0673 24.0578 22.1935 24.2514C21.7928 24.3401 21.4649 24.3998 21.4649 24.3839C21.4649 24.3207 24.5788 16.664 26.1131 12.955C27.461 9.69651 27.746 8.93341 27.7489 8.57609C27.7532 8.03529 27.5366 7.72409 27.0769 7.61066C26.7871 7.53915 26.6812 7.56118 26.2476 7.78278C25.54 8.14458 25.2204 8.6137 24.4751 10.3853C23.4703 12.7736 19.4195 22.6236 18.9055 23.9284L18.4425 25.1036L17.6797 25.288C16.2312 25.638 12.6407 26.5835 11.9352 26.8007C11.1752 27.0347 10.6906 27.3563 10.6906 27.6268C10.6906 27.8607 10.9816 28.3921 11.2561 28.6596C11.3826 28.7829 11.7249 28.9686 12.0168 29.0723C12.4901 29.2405 12.6233 29.3473 13.2495 30.0607C14.0562 30.9798 14.6882 31.4413 15.3491 31.5941C15.6041 31.653 15.8128 31.7236 15.8128 31.7509C15.8128 31.7782 15.5116 32.592 15.1436 33.5593C14.1138 36.2658 12.7196 40.0313 12.007 42.0308C11.2772 44.0784 11.1863 44.6822 11.5386 45.1438C12.0485 45.8121 13.0555 45.5215 13.6488 44.5347C13.7664 44.3392 14.342 42.8826 14.928 41.2977C16.9097 35.9379 18.6823 31.3867 18.8155 31.3169C18.8883 31.2787 19.6037 31.1098 20.4051 30.9415C21.2066 30.7733 22.8739 30.4223 24.1102 30.1615C25.3465 29.9007 26.3695 29.6986 26.3835 29.7123C26.3976 29.7259 26.1477 30.4313 25.828 31.2798C24.9384 33.6418 22.7635 40.0374 22.2639 41.7609C22.0187 42.6065 21.8181 43.4422 21.8181 43.618C21.8181 44.0394 22.224 44.6325 22.8674 45.1514C23.1403 45.3716 23.7229 45.9116 24.1619 46.3515C24.9082 47.0992 24.9834 47.1514 25.3156 47.1514C25.8253 47.1514 26.0615 46.8639 26.4114 45.8174C27.8751 41.4407 32.6484 28.5592 32.888 28.3398C32.9439 28.2884 33.2482 28.1791 33.5639 28.0968C34.7939 27.7764 35.7332 27.1441 36.3914 26.1937C37.0142 25.2943 37.544 24.7248 38.276 24.1685C39.0284 23.5966 39.3041 23.101 39.1657 22.569C38.9882 21.8866 38.3572 21.7462 36.4119 21.9559C35.3359 22.0719 35.3301 22.0716 35.3857 21.8965C35.4501 21.6942 36.2744 19.6395 38.3736 14.4484C40.2416 9.82904 40.6242 8.83418 40.7406 8.29347C40.968 7.23716 40.4387 6.85127 39.2602 7.21401ZM71.5831 7.25162C71.3402 7.3135 70.764 7.50877 70.3025 7.68554C69.8411 7.86222 69.1456 8.10078 68.757 8.21575C67.9165 8.4643 67.462 8.75492 67.0175 9.32808C66.8367 9.56131 65.9657 11.2057 65.0821 12.9824C61.6168 19.9503 59.3039 24.9988 56.6832 31.3163L55.4516 34.2853L55.5009 32.5211C55.5843 29.5432 55.856 26.9926 56.7478 20.8169C57.7264 14.0389 58.1152 10.6817 58.1152 9.00863C58.1152 8.07332 58.1133 8.06489 57.8458 7.80413C57.585 7.55008 57.5556 7.54285 56.9405 7.58175C56.4736 7.61127 56.0936 7.7074 55.5099 7.94372C55.0728 8.12066 54.3972 8.38245 54.0086 8.52531C51.9993 9.26449 51.6542 9.50262 51.3092 10.3883C48.9542 16.4332 44.5617 29.6454 41.8222 38.924C40.4442 43.5911 40.2761 44.418 40.5864 45.0027C40.7309 45.2752 41.1248 45.5162 41.4253 45.5162C41.8864 45.5162 42.5752 44.9061 42.8242 44.2771C42.9197 44.0356 43.5825 41.921 44.2971 39.5781C46.4886 32.3923 48.9336 24.7582 50.3334 20.7308L51.0364 18.7084L51.0432 19.2411C51.052 19.9213 50.8689 22.0475 50.4331 26.3248C49.7906 32.6332 49.6326 35.512 49.8043 37.7835C49.9096 39.1756 50.0563 39.848 50.3602 40.3326C50.4572 40.4873 50.8754 40.9714 51.2895 41.4084C51.7036 41.8454 52.1923 42.4159 52.3754 42.6762C53.0356 43.6147 53.4618 43.791 53.9558 43.3297C54.258 43.0477 54.2401 43.0875 55.4271 40.0514C58.0847 33.2534 61.8582 24.6289 64.7211 18.8091C65.4286 17.3709 65.766 16.7595 65.591 17.2331C65.5033 17.4702 63.873 25.4294 63.1118 29.3369C61.8972 35.5708 60.7766 41.8331 60.6305 43.2038C60.5457 43.9995 60.6879 44.2541 61.5891 44.9204C61.9857 45.2135 62.6738 45.8223 63.1183 46.2731C63.9147 47.0809 63.9332 47.0933 64.3989 47.131C64.7866 47.1623 64.8995 47.1391 65.0271 47.0016C65.1414 46.8786 65.7318 44.1632 67.2509 36.7731C70.213 22.3645 71.9679 14.1637 72.8742 10.4956C73.0679 9.71131 73.2492 8.75811 73.2771 8.37729C73.3245 7.73106 73.3135 7.66867 73.1126 7.44104C72.8529 7.1468 72.2746 7.0752 71.5831 7.25162ZM36.0367 30.0466C35.8667 30.1017 35.5216 30.3467 35.2698 30.5911C34.4816 31.3561 34.3754 32.088 34.8314 33.6142L35.0422 34.32L34.2943 35.1203C32.7069 36.8185 32.3886 37.4092 32.379 38.6744C32.372 39.5958 32.5901 40.175 33.1193 40.6409C34.0473 41.458 35.6187 41.3906 36.7213 40.4864C36.8688 40.3655 37.0127 40.2665 37.0412 40.2665C37.0696 40.2665 37.1726 40.4189 37.2701 40.6051C37.3676 40.7913 37.5362 41.0043 37.6448 41.0784C37.9075 41.2577 38.3602 41.2496 38.5331 41.0626C38.8023 40.7715 38.7997 40.4904 38.5212 39.7121L38.254 38.9655L38.6403 38.4705C39.2422 37.6992 39.4809 37.2036 39.4809 36.7252C39.4809 36.2138 39.2683 35.9635 38.8337 35.9635C38.5448 35.9635 37.8623 36.3319 37.6166 36.6205C37.5175 36.7369 37.4609 36.6392 37.2169 35.9301L36.9328 35.1042L37.6595 34.1606C38.5794 32.9659 38.8015 32.537 38.8464 31.8676C38.8982 31.0959 38.5677 30.5365 37.8471 30.1762C37.4277 29.9665 36.4911 29.8994 36.0367 30.0466ZM36.9905 31.5917C37.2206 31.8158 37.1117 32.23 36.7086 32.6634L36.3207 33.0805L36.2144 32.6963C36.1 32.2832 36.1413 31.8059 36.3082 31.6098C36.4346 31.4614 36.8457 31.4505 36.9905 31.5917ZM36.0379 37.2901L36.2374 37.8852L35.9383 38.1287C35.3789 38.5842 34.8003 38.5958 34.8003 38.1516C34.8003 37.7667 35.6231 36.4659 35.7686 36.6208C35.8069 36.6616 35.928 36.9629 36.0379 37.2901Z" fill="#E81111"></path>
</svg>