
<svg width="179" height="35" viewBox="0 0 601 121" fill="none" xmlns="http://www.w3.org/2000/svg">
<path d="M146.8 3.70312C131.7 3.70312 126.4 14.2031 126.4 24.0031V30.0031H123.2C120.9 30.0031 119.1 31.8031 119.1 34.1031C119.1 36.4031 120.9 38.2031 123.2 38.2031H126.4V79.6031C126.4 82.0031 128.3 84.0031 130.8 84.0031C133.2 84.0031 135.2 82.1031 135.2 79.6031V38.2031H144.9C147.2 38.2031 149 36.4031 149 34.1031C149 31.8031 147.2 30.0031 144.9 30.0031H135.2V24.0031C135.2 18.5031 137.2 12.0031 146.9 12.0031C149.2 12.0031 151 10.2031 151 7.90311C150.9 5.50311 149.1 3.70312 146.8 3.70312Z" fill="#4D4D4D"></path>
<path d="M180.8 28.6016C174.3 28.6016 168.8 31.3016 165.7 35.7016V33.4016C165.7 31.0016 163.8 29.0016 161.3 29.0016C158.9 29.0016 156.9 30.9016 156.9 33.4016V79.6016C156.9 82.0016 158.8 84.0016 161.3 84.0016C163.7 84.0016 165.7 82.1016 165.7 79.6016V54.1016C165.7 43.4016 171.4 37.0016 180.8 37.0016C183.1 37.0016 185 35.1015 185 32.8015C185.1 30.5015 183.2 28.6016 180.8 28.6016Z" fill="#4D4D4D"></path>
<path d="M234.3 51.2984C234.3 48.7984 233.9 42.2984 230.1 36.8984C226.2 31.2984 220.1 28.3984 211.8 28.3984C196.4 28.3984 187.6 38.5984 187.6 56.3984C187.6 74.7984 196.4 84.5984 212.9 84.5984C224 84.5984 230.1 79.0984 231.2 77.9984C231.9 77.2984 232.7 76.3984 232.7 74.8984C232.7 72.6984 230.9 70.8984 228.7 70.8984C227.6 70.8984 226.9 71.1985 226.2 71.6985C223 74.0985 219.3 76.4984 213 76.4984C203.1 76.4984 196.8 69.9984 196.5 59.3984H229C234.3 59.2984 234.3 54.4984 234.3 51.2984ZM211.8 36.3984C220.8 36.3984 225.5 41.4984 225.7 51.4984H196.6C197.4 41.7984 202.8 36.3984 211.8 36.3984Z" fill="#4D4D4D"></path>
<path d="M263.7 52C257.2 49.8 251.6 47.8 251.6 43C251.6 37.7 257.5 36.9 261 36.9C267.3 36.9 270.4 39.1 272.9 41.5C273.7 42.3 274.7 42.7 275.8 42.7C278 42.7 279.8 40.9 279.8 38.7C279.8 37.5 279.3 36.7 278.9 36.1C275.2 31.2 268.9 28.5 261 28.5C249.8 28.5 242.9 34.1 242.9 43C242.9 53.9 252.5 57.2 260.9 60C267.3 62.2 272.8 64 272.8 68.7C272.8 75.1 265.7 76.1 261.4 76.1C255.6 76.1 251.1 74.3 247.4 70.7C246.3 69.6 245.1 69.4 244.4 69.4C242.2 69.4 240.4 71.2 240.4 73.4C240.4 74.3 240.7 75 241.4 76C244.7 80.2 252.2 84.5 261.4 84.5C274 84.5 281.5 78.6 281.5 68.8C281.5 58.2 272.1 54.9 263.7 52Z" fill="#4D4D4D"></path>
<path d="M315.6 28.4016C309.6 28.4016 304.2 30.8016 301.2 34.6016V5.00156C301.2 2.60156 299.3 0.601562 296.8 0.601562C294.4 0.601562 292.4 2.50156 292.4 5.00156V79.7016C292.4 82.1016 294.3 84.1016 296.8 84.1016C299.2 84.1016 301.2 82.2016 301.2 79.7016V51.6016C301.2 41.5016 306.1 36.4016 315.6 36.4016C324.8 36.4016 328.6 40.6015 328.6 50.8015V79.7016C328.6 82.1016 330.5 84.1016 333 84.1016C335.4 84.1016 337.4 82.2016 337.4 79.7016V49.3015C337.2 35.4015 329.9 28.4016 315.6 28.4016Z" fill="#4D4D4D"></path>
<path d="M410.1 29.1016C408.2 29.1016 406.7 30.2016 406 32.0016L393.5 67.6016L383.3 32.0016C382.9 30.6016 381.4 29.1016 379.2 29.1016C377 29.1016 375.5 30.6016 375.1 32.0016L364.9 67.5016L352.4 31.9016C351.7 30.1016 350.2 29.1016 348.3 29.1016C345.9 29.1016 343.9 31.0016 343.9 33.5016C343.9 34.1016 344 34.7015 344.3 35.3015L361 81.2016C361.7 83.0016 363.2 84.0016 365.1 84.0016C367.1 84.0016 368.8 82.7016 369.3 80.9016L379.1 47.2016L388.9 80.9016C389.4 82.7016 391.2 84.0016 393.1 84.0016C395 84.0016 396.5 82.9016 397.2 81.1016L413.9 35.2016C414.2 34.6016 414.3 33.9015 414.3 33.3015C414.4 31.0015 412.5 29.1016 410.1 29.1016Z" fill="#4D4D4D"></path>
<path d="M441.899 28.3984C425.999 28.3984 417.299 38.3984 417.299 56.3984C417.299 74.5984 425.999 84.5984 441.899 84.5984C457.799 84.5984 466.499 74.5984 466.499 56.3984C466.499 38.2984 457.699 28.3984 441.899 28.3984ZM441.899 76.5984C431.299 76.5984 426.099 69.9984 426.099 56.4984C426.099 43.1984 431.399 36.4984 441.899 36.4984C452.399 36.4984 457.699 43.1984 457.699 56.4984C457.699 69.9984 452.499 76.5984 441.899 76.5984Z" fill="#4D4D4D"></path>
<path d="M500.3 28.6016C493.8 28.6016 488.3 31.3016 485.2 35.7016V33.4016C485.2 31.0016 483.3 29.0016 480.8 29.0016C478.4 29.0016 476.4 30.9016 476.4 33.4016V79.6016C476.4 82.0016 478.3 84.0016 480.8 84.0016C483.2 84.0016 485.2 82.1016 485.2 79.6016V54.1016C485.2 43.4016 490.9 37.0016 500.3 37.0016C502.6 37.0016 504.5 35.1015 504.5 32.8015C504.5 30.5015 502.6 28.6016 500.3 28.6016Z" fill="#4D4D4D"></path>
<path d="M533.5 51.4016L551.6 36.9016C553.1 35.7016 553.3 34.2016 553.3 33.4016C553.3 31.0016 551.4 29.0016 548.9 29.0016C548.2 29.0016 547 29.1016 545.9 30.1016L520.2 51.1016V5.00156C520.2 2.60156 518.3 0.601562 515.8 0.601562C513.4 0.601562 511.4 2.50156 511.4 5.00156V79.7016C511.4 82.1016 513.3 84.1016 515.8 84.1016C518.2 84.1016 520.2 82.2016 520.2 79.7016V61.7016L526.3 56.8015L546 82.1016C547.1 83.4016 548.3 84.1016 549.7 84.1016C552.1 84.1016 554.1 82.2016 554.1 79.7016C554.1 79.0016 554 78.0016 553.2 77.0016L533.5 51.4016Z" fill="#4D4D4D"></path>
<path d="M582.8 52C576.3 49.8 570.7 47.8 570.7 43C570.7 37.7 576.6 36.9 580.1 36.9C586.4 36.9 589.5 39.1 592 41.5C592.8 42.3 593.8 42.7 594.9 42.7C597.1 42.7 598.9 40.9 598.9 38.7C598.9 37.4 598.2 36.5 598 36.1C594.3 31.2 588 28.5 580.1 28.5C568.9 28.5 562 34.1 562 43C562 53.9 571.6 57.2 580 60C586.4 62.2 591.9 64 591.9 68.7C591.9 75.1 584.8 76.1 580.5 76.1C574.7 76.1 570.2 74.3 566.5 70.7C565.4 69.6 564.3 69.4 563.5 69.4C561.3 69.4 559.5 71.2 559.5 73.4C559.5 74.3 559.8 75 560.5 76C563.8 80.2 571.3 84.5 580.5 84.5C593.1 84.5 600.6 78.6 600.6 68.8C600.6 58.2 591.2 54.9 582.8 52Z" fill="#4D4D4D"></path>
<path d="M1.19922 77.1985C2.89922 88.2985 8.09922 98.2984 15.5992 105.798L33.0992 88.2984C33.0992 70.5984 42.2992 53.3984 58.6992 43.8984L1.19922 77.1985Z" fill="#9B65C3"></path>
<path d="M33.0992 88.3015C24.3992 88.3015 15.5992 86.1016 7.49922 81.4016C5.29922 80.1016 3.19922 78.7016 1.19922 77.1016C2.89922 88.2016 8.09922 98.2016 15.5992 105.702L33.0992 88.3015Z" fill="#9B65C3"></path>
<path d="M33.0996 88.3031L15.5996 105.803C23.1996 113.403 33.0996 118.603 44.1996 120.203L77.3996 62.7031C67.9996 79.1031 50.7996 88.3031 33.0996 88.3031Z" fill="#BE63C5"></path>
<path d="M39.9996 113.998C35.2996 105.898 33.0996 97.0984 33.0996 88.3984L15.5996 105.898C23.1996 113.498 33.0996 118.698 44.1996 120.298C42.6996 118.298 41.2996 116.198 39.9996 113.998Z" fill="#BF63C6"></path>
<path d="M98.2992 21.1016L58.7992 44.0016C42.3992 53.5016 22.8992 52.8016 7.59922 44.0016C3.19922 51.5016 0.699219 60.3016 0.699219 69.6016C0.699219 72.2016 0.899217 74.7016 1.29922 77.2016C3.29922 78.8016 5.39922 80.2016 7.59922 81.5016C15.6992 86.2016 24.4992 88.4016 33.1992 88.4016L99.3992 22.2016C98.9992 21.8016 98.6992 21.4016 98.2992 21.1016Z" fill="#3278B1"></path>
<path d="M7.49961 81.5C15.5996 86.2 24.3996 88.4 33.0996 88.4C33.0996 70.7 42.2996 53.5 58.6996 44L1.09961 77.2C3.19961 78.7 5.29961 80.2 7.49961 81.5Z" fill="#3278B2"></path>
<path d="M7.49961 44C3.09961 51.5 0.599609 60.3 0.599609 69.6C0.599609 72.2 0.79961 74.7 1.19961 77.2L58.7996 44C42.2996 53.4 22.7996 52.8 7.49961 44Z" fill="#45A4EC"></path>
<path d="M99.4 22.1047C99.1 21.8047 98.7 21.4047 98.3 21.1047C97.8 20.7047 97.3 20.3047 96.7 20.0047C94.8 18.9047 92.6 18.3047 90.3 18.3047H51.9C32.9 18.3047 16.4 28.6047 7.5 43.9047C22.8 52.7047 42.3 53.4047 58.7 43.9047C42.3 53.4047 33.1 70.6047 33.1 88.3047C50.8 88.3047 68 79.1047 77.5 62.7047L100.3 23.2047C100 22.8047 99.7 22.4047 99.4 22.1047Z" fill="#19BB7D"></path>
<path d="M58.8 44.0016L98.3 21.2016C97.8 20.8016 97.3 20.4016 96.7 20.1016L7.5 44.0016C22.8 52.8016 42.3 53.4016 58.8 44.0016Z" fill="#08C7FB"></path>
<path d="M90.3 18.3047H51.9C32.9 18.3047 16.4 28.6047 7.5 43.9047L96.7 20.0047C94.8 19.0047 92.7 18.3047 90.3 18.3047Z" fill="#59F2F6"></path>
<path d="M77.4996 62.7016L100.3 23.2016C99.9996 22.8016 99.6996 22.5016 99.2996 22.1016L33.0996 88.3015C33.0996 97.0015 35.2996 105.802 39.9996 113.902C41.2996 116.102 42.6996 118.202 44.2996 120.202C46.7996 120.602 49.2996 120.802 51.8996 120.802C61.1996 120.802 69.9996 118.302 77.4996 113.902C68.6996 98.6016 67.9996 79.1016 77.4996 62.7016Z" fill="#DA3757"></path>
<path d="M33.0996 88.3031C33.0996 97.0031 35.2996 105.803 39.9996 113.903C41.2996 116.103 42.6996 118.203 44.2996 120.203L77.4996 62.7031C67.9996 79.1031 50.7996 88.3031 33.0996 88.3031Z" fill="#D33C4E"></path>
<path d="M77.4988 62.7031L44.2988 120.303C46.7988 120.703 49.2988 120.903 51.8988 120.903C61.1988 120.903 69.9988 118.403 77.4988 114.003C68.6988 98.6031 67.9988 79.1031 77.4988 62.7031Z" fill="#EE5A24"></path>
<path d="M101.399 24.8015C101.099 24.2015 100.699 23.7016 100.299 23.2016C99.9992 22.8016 99.6992 22.5016 99.2992 22.1016C98.9992 21.8016 98.5992 21.4016 98.1992 21.1016L58.7992 44.0016C42.3992 53.5016 33.1992 70.7015 33.1992 88.4016C50.8992 88.4016 68.0992 79.2015 77.5992 62.8015C68.0992 79.2015 68.7992 98.7016 77.5992 114.002C92.8992 105.102 103.199 88.6016 103.199 69.6016V31.2016C103.099 28.8016 102.499 26.6015 101.399 24.8015Z" fill="#8BDF55"></path>
<path d="M98.2992 21.1016L58.7992 44.0016C42.3992 53.5016 33.1992 70.7015 33.1992 88.4016L99.3992 22.2016C98.9992 21.8016 98.6992 21.4016 98.2992 21.1016Z" fill="#25C16F"></path>
<path d="M33.0996 88.3015C50.7996 88.3015 67.9996 79.1016 77.4996 62.7016L100.3 23.2016C99.9996 22.8016 99.6996 22.5016 99.2996 22.1016L33.0996 88.3015Z" fill="#8BDF55"></path>
<path d="M100.3 23.2031L77.4998 62.7031C67.9998 79.1031 68.6998 98.6031 77.4998 113.903L101.4 24.7031C101.1 24.2031 100.7 23.7031 100.3 23.2031Z" fill="#FFBB00"></path>
<path d="M77.5 114.005C92.8 105.105 103.1 88.6047 103.1 69.6047V31.2047C103.1 28.9047 102.5 26.7047 101.4 24.8047L77.5 114.005Z" fill="#FFA800"></path>
</svg>