<svg class="xero-logo" width="102" height="27" viewBox="0 0 102 30" fill="none" xmlns="http://www.w3.org/2000/svg">
<path d="M17.5769 14.9582L28.5855 4.20799C28.9503 3.85058 29.1543 3.37031 29.1543 2.86212C29.1543 1.80105 28.2695 0.941035 27.1807 0.941035C26.6492 0.941035 26.1522 1.14208 25.7788 1.51345L14.776 12.2162L3.73007 1.49391C3.35661 1.1365 2.86249 0.941035 2.33677 0.941035C1.24511 0.941035 0.363159 1.80106 0.363159 2.85933C0.363159 3.3759 0.575746 3.86454 0.954955 4.22754L11.9635 14.9415L0.9607 25.6638C0.575746 26.0379 0.363159 26.5238 0.363159 27.0404C0.363159 28.1014 1.24798 28.9614 2.33677 28.9614C2.86249 28.9614 3.35661 28.766 3.73007 28.403L14.7616 17.6751L25.75 28.3611C26.1407 28.752 26.6406 28.9614 27.1807 28.9614C28.2666 28.9614 29.1514 28.1014 29.1514 27.0404C29.1514 26.5294 28.9503 26.0491 28.5769 25.6861L17.5741 14.9471L17.5769 14.9582ZM83.0221 14.9554C83.0221 16.8821 84.6308 18.4458 86.6131 18.4458C88.5838 18.4458 90.1926 16.8821 90.1926 14.9554C90.1926 13.0288 88.5838 11.4651 86.6102 11.4651C84.6366 11.4651 83.0307 13.0288 83.0307 14.9554H83.0221ZM76.2279 14.9554C76.2279 9.38485 80.8818 4.84742 86.6102 4.84742C92.327 4.84742 96.9896 9.38485 96.9896 14.9554C96.9896 20.526 92.3299 25.0634 86.6102 25.0634C80.8847 25.0634 76.2279 20.5316 76.2279 14.9554ZM72.1428 14.9554C72.1428 22.7179 78.6353 29.0396 86.6102 29.0396C94.5851 29.0396 101.078 22.7235 101.078 14.9582C101.078 7.19572 94.5851 0.874023 86.6102 0.874023C78.6324 0.874023 72.1428 7.19293 72.1428 14.9582V14.9554ZM71.1172 1.11416H70.5139C68.6897 1.11416 66.9315 1.67261 65.4635 2.77556C65.2625 1.92112 64.4696 1.26773 63.5273 1.26773C62.4442 1.26773 61.5738 2.11937 61.5738 3.17764L61.5795 26.898C61.5795 27.9506 62.4701 28.8079 63.5474 28.8079C64.6333 28.8079 65.5181 27.9506 65.521 26.8924V12.3056C65.521 7.44702 65.9807 5.48126 70.2554 4.9619C70.6576 4.91443 71.0827 4.92281 71.0885 4.92281C72.2548 4.88093 73.0879 4.0963 73.0879 3.03803C73.0879 1.97697 72.1974 1.11695 71.1057 1.11695L71.1172 1.11416ZM33.2365 12.6406C33.2365 12.5848 33.2423 12.5289 33.2452 12.4787C34.3885 8.0669 38.4909 4.80833 43.3718 4.80833C48.313 4.80833 52.4498 8.1423 53.5415 12.6323H33.2337L33.2365 12.6406ZM57.5777 12.2776C56.7274 8.36009 54.524 5.14061 51.1714 3.07433C46.2647 0.0419261 39.7894 0.209462 35.055 3.49317C31.1882 6.16537 28.9561 10.5436 28.9561 15.0532C28.9561 16.184 29.0997 17.3261 29.387 18.4513C30.8464 24.0359 35.7818 28.269 41.6653 28.9698C43.412 29.1764 45.1127 29.0815 46.8651 28.6347C48.3819 28.2718 49.8442 27.6798 51.1915 26.8365C52.5906 25.9625 53.7598 24.8065 54.8974 23.4244C54.9146 23.3965 54.9376 23.3769 54.9606 23.349C55.7478 22.3996 55.6012 21.0426 54.7394 20.4003C54.0097 19.8559 52.7859 19.6353 51.8264 20.8359C51.6196 21.1263 51.3869 21.4223 51.1369 21.7155C50.3699 22.5392 49.419 23.335 48.2814 23.9549C46.8277 24.7088 45.1787 25.136 43.4263 25.1472C37.6865 25.083 34.6184 21.1822 33.5238 18.4011C33.3342 17.8789 33.1877 17.34 33.0843 16.7816L33.0556 16.4884H53.6535C56.4746 16.427 57.9914 14.4863 57.572 12.2721L57.5777 12.2776Z" fill="#13B5E9"></path>
</svg>