<svg width="172" height="38" viewBox="0 0 172 41" fill="none" xmlns="http://www.w3.org/2000/svg">
<path fill-rule="evenodd" clip-rule="evenodd" d="M164.814 23.5388C168.565 23.5388 171.462 20.4924 171.499 16.8805C171.238 15.3032 170.684 12.3853 166.575 12.3853C162.084 12.3853 160.593 18.6424 156.936 22.6754C156.639 24.9697 154.463 27.0223 151.741 27.3662C152.409 28.0621 153.89 28.4361 155.659 28.4361C158.899 28.4361 162.821 27.4645 164.873 25.446C162.136 25.4811 160.375 23.7283 160.201 21.2986C161.536 22.911 163.046 23.5388 164.814 23.5388Z" fill="#12ABDB"></path>
<path fill-rule="evenodd" clip-rule="evenodd" d="M135.997 13.5833C135.997 11.5969 135.876 10.2692 134.572 10.2692C133.977 10.2692 133.686 10.3856 133.166 10.559C133.628 17.2774 132.106 23.1936 130.246 23.1936C127.808 23.1936 129.026 8.79422 123.859 8.79422C119.097 8.79422 118.413 20.2887 117.872 20.2887C117.503 20.2887 117.447 17.2704 117.466 14.9701C117.667 13.8651 117.774 12.8764 117.774 12.1243C117.774 11.0534 117.338 9.20233 114.898 10.1279C114.985 18.3453 113.333 23.3139 111.474 23.3139C108.746 23.3139 108.717 15.8615 108.717 13.8079C108.717 11.8024 108.861 9.12211 105.872 10.0767C105.423 17.2463 103.539 22.6581 102.35 22.6581C100.577 22.6581 100.934 10.2703 97.1006 10.2703C93.6564 10.2703 92.5908 22.0023 91.8724 22.0023C90.5875 22.0023 92.2739 8.79422 87.2992 8.79422C84.6881 8.79422 83.6517 13.2053 82.6294 18.1398C82.4301 19.0964 82.2218 19.1245 82.1886 18.0465C82.1619 17.1249 82.1539 16.2029 82.1645 15.281C83.4212 10.3204 81.8878 8.48838 79.5826 9.80999C80.3251 18.964 76.1101 23.4393 72.8742 23.4393C71.7039 23.4393 70.7853 22.9439 70.097 22.1608C73.977 19.7903 75.7006 17.0688 75.7006 14.4116C75.7006 11.5297 74.0404 9.87116 71.2833 9.87116C67.4336 9.87116 65.2823 13.82 65.2823 17.1761C65.2823 18.9831 65.6194 20.5173 66.1778 21.7827C64.8557 22.4115 63.609 22.9549 62.4488 23.4824C62.3482 20.0289 61.9558 16.402 61.6579 13.0569C59.6103 12.4943 59.0116 13.476 58.8536 15.293C58.4914 19.4393 56.9499 22.0114 55.5875 22.0114C54.5612 22.0114 53.9363 20.768 53.8608 19.4473C53.4805 12.8012 58.8949 10.9521 61.7254 11.9158C62.313 10.4507 61.668 9.39486 59.1143 9.39486C56.0151 9.39486 53.6998 11.27 52.0024 13.6766C50.8684 15.281 49.5603 16.4191 47.8206 17.7958C47.8648 17.3997 47.889 17.0037 47.889 16.6146C47.889 11.9278 45.3403 9.87116 42.9072 9.87116C40.8938 9.87116 39.629 11.0745 38.8945 12.9195C38.7134 11.0694 38.3441 10.2703 37.2644 10.2703C36.8016 10.2703 36.1606 10.4006 35.4704 10.7335C35.7863 11.7663 35.9091 14.0576 35.9091 15.5657C35.9091 21.2011 34.2891 23.726 32.7294 23.726C30.9485 23.726 30.6647 17.0418 30.5158 14.4407C30.237 14.3341 29.9409 14.2797 29.6424 14.2802C28.0315 14.2802 27.8212 16.4381 27.4237 18.4215C26.983 20.6196 25.7121 23.3841 23.8305 23.3841C22.6935 23.3841 21.9841 22.2911 21.8956 20.3258C21.7104 16.3419 25.037 11.6199 30.2421 13.089C30.9243 11.5016 29.8537 10.2933 27.6934 10.2933C23.8889 10.2933 20.7435 13.1311 19.372 16.4893C17.9794 19.5677 15.5414 24.09 10.5828 24.09C7.08117 24.09 4.40265 21.0477 4.40265 14.6613C4.40265 9.15621 7.88413 3.9269 11.6001 3.9269C14.1991 3.9269 14.8018 6.47387 14.5734 8.86641C15.9177 9.94436 18.1273 8.94262 18.1273 6.25126C18.1273 4.39619 16.616 1.25159 11.7379 1.25159C5.69965 1.25159 0.364731 7.252 0.364731 15.1376C0.364731 22.7704 4.25272 27.2828 9.75668 27.2828C13.2281 27.2828 16.5053 25.3074 18.7673 21.6654C19.3358 24.8541 21.5173 26.1968 23.1523 26.1968C25.7977 26.1968 27.5253 24.4911 28.4692 22.1788C29.0578 24.4952 30.3005 26.2058 32.3632 26.2058C33.8182 26.2058 34.9522 25.4728 35.8064 24.2946C35.4683 32.3396 35.0397 37.4686 39.8101 36.4579C39.0736 34.1716 38.8381 30.0072 38.8381 26.269C38.8381 16.038 40.5316 12.6718 42.6537 12.6718C44.1912 12.6718 44.6892 14.6252 44.6892 16.7089C44.6892 17.8249 44.5826 19.1074 44.2968 20.2656C41.6897 21.9051 39.6069 23.1986 39.6069 24.8431C39.6069 26.1437 40.5748 26.265 41.413 26.265C43.4154 26.265 45.8252 24.3066 47.1575 20.6115C48.3227 19.9096 49.4899 19.1044 50.6078 18.0084C50.5705 18.3834 50.5474 18.7605 50.5474 19.1455C50.5474 22.8146 52.1603 25.0296 54.7322 25.0296C56.7476 25.0296 58.26 23.6057 59.3266 21.4729C59.394 22.7022 59.4352 23.8343 59.4543 24.8772C55.3661 26.7593 50.8412 28.6746 50.8412 33.9891C50.8412 36.7386 52.8335 38.8093 55.4295 38.8093C61.1247 38.8093 62.4227 32.8189 62.477 25.8599C64.3304 25.0577 65.712 24.44 67.3058 23.6559C68.6682 25.3545 70.5196 26.2068 72.2191 26.2068C75.434 26.2068 77.8468 24.5092 79.7858 21.0678C80.1299 23.6869 80.8111 26.2068 82.2077 26.2068C84.7565 26.2068 85.2717 12.9305 87.1674 12.9305C88.6183 12.9305 87.4259 27.2958 91.2576 27.2958C94.5378 27.2958 95.1536 14.6542 96.7505 14.6542C97.8825 14.6542 97.968 26.2088 101.54 26.2088C103.297 26.2088 105.203 24.1051 106.159 19.697C106.606 22.629 108.093 26.2088 110.996 26.2088C112.69 26.2088 114.146 24.5012 115.27 22.231C115.58 24.5673 116.244 26.2088 117.527 26.2088C120.864 26.2088 120.753 12.9606 123.395 12.9606C125.456 12.9606 124.818 26.2088 129.724 26.2088C132.058 26.2088 133.165 24.2254 133.823 21.7386C134.726 25.3976 136.185 26.2088 137.384 26.2088C138.144 26.2088 138.718 25.9421 139.471 25.0477C135.678 23.4072 135.997 17.4389 135.997 13.5833ZM55.668 36.3315C54.4897 36.3315 53.8669 35.2175 53.8669 33.955C53.8669 30.5587 56.3703 28.7548 59.4554 27.2066C59.3145 34.6339 57.5828 36.3315 55.668 36.3315ZM70.9925 12.2557C72.1396 12.2557 72.7967 13.3056 72.683 14.8157C72.5492 16.5895 71.2542 18.6181 69.0033 20.2134C67.826 16.8793 68.7004 12.2557 70.9925 12.2557ZM107.341 7.23395C108.435 7.19685 109.198 6.26129 109.202 5.14824C109.206 4.0352 108.452 3.16181 107.358 3.20092C106.264 3.23802 105.373 4.17157 105.368 5.28562C105.363 6.39866 106.246 7.27105 107.341 7.23395ZM134.531 7.79849C135.526 7.7634 136.338 6.87296 136.342 5.81306C136.347 4.75116 135.543 3.92089 134.546 3.95598C133.549 3.99208 132.739 4.88252 132.734 5.94242C132.73 7.00332 133.534 7.83459 134.531 7.79849ZM171.493 16.6146C171.411 12.4161 169.406 8.87343 166.316 6.0457C163.969 3.90986 161.181 2.28842 158.258 1.06708C158.023 0.968053 157.786 0.872116 157.549 0.779297H157.548C153.948 5.07605 141.486 8.28282 141.486 17.2915C141.486 20.8131 143.717 24.1061 146.995 25.4277C148.894 26.1437 150.795 26.1828 152.697 25.546C154.387 24.9925 155.778 23.9477 156.934 22.6742C160.594 18.6411 162.084 12.386 166.574 12.386C170.684 12.386 171.237 15.301 171.5 16.8793C171.5 16.8753 171.498 16.765 171.493 16.6146Z" fill="#0070AD"></path>
</svg>