<svg width="101" height="29" viewBox="0 0 101 29" fill="none" xmlns="http://www.w3.org/2000/svg">
<path d="M17.0984 14.6523L28.0289 3.97829C28.3911 3.62341 28.5936 3.14655 28.5936 2.64196C28.5936 1.58842 27.7151 0.734505 26.634 0.734505C26.1063 0.734505 25.6129 0.934122 25.242 1.30286L14.3173 11.9297L3.34975 1.28345C2.97893 0.928579 2.48832 0.734505 1.96632 0.734505C0.882405 0.734505 0.00671387 1.58843 0.00671387 2.63919C0.00671387 3.15209 0.217793 3.63727 0.594312 3.99769L11.5248 14.6356L0.600016 25.2819C0.217792 25.6534 0.00671387 26.1358 0.00671387 26.6487C0.00671387 27.7022 0.885258 28.5561 1.96632 28.5561C2.48832 28.5561 2.97893 28.3621 3.34975 28.0017L14.303 17.3499L25.2135 27.9601C25.6014 28.3482 26.0978 28.5561 26.634 28.5561C27.7122 28.5561 28.5908 27.7022 28.5908 26.6487C28.5908 26.1413 28.3911 25.6645 28.0203 25.3041L17.0955 14.6412L17.0984 14.6523ZM82.0793 14.6495C82.0793 16.5625 83.6766 18.1151 85.6448 18.1151C87.6016 18.1151 89.1989 16.5625 89.1989 14.6495C89.1989 12.7365 87.6016 11.1839 85.6419 11.1839C83.6823 11.1839 82.0878 12.7365 82.0878 14.6495H82.0793ZM75.3333 14.6495C75.3333 9.11843 79.9542 4.61318 85.6419 4.61318C91.3183 4.61318 95.9477 9.11843 95.9477 14.6495C95.9477 20.1805 91.3211 24.6858 85.6419 24.6858C79.9571 24.6858 75.3333 20.1861 75.3333 14.6495ZM71.2772 14.6495C71.2772 22.3569 77.7236 28.6338 85.6419 28.6338C93.5603 28.6338 100.007 22.3625 100.007 14.6523C100.007 6.94482 93.5603 0.667969 85.6419 0.667969C77.7208 0.667969 71.2772 6.94205 71.2772 14.6523V14.6495ZM70.2589 0.906399H69.6599C67.8486 0.906399 66.1029 1.46089 64.6453 2.55601C64.4456 1.70764 63.6584 1.05888 62.7228 1.05888C61.6474 1.05888 60.7831 1.90448 60.7831 2.95525L60.7888 26.5073C60.7888 27.5525 61.6731 28.4037 62.7428 28.4037C63.821 28.4037 64.6995 27.5525 64.7024 26.5018V12.0184C64.7024 7.19434 65.1588 5.24253 69.4031 4.72685C69.8025 4.67972 70.2246 4.68804 70.2303 4.68804C71.3884 4.64645 72.2156 3.86738 72.2156 2.81662C72.2156 1.76309 71.3314 0.909173 70.2475 0.909173L70.2589 0.906399ZM32.6469 12.3511C32.6469 12.2957 32.6526 12.2402 32.6555 12.1903C33.7907 7.80983 37.864 4.57436 42.7102 4.57436C47.6164 4.57436 51.7239 7.88468 52.8078 12.3428H32.6441L32.6469 12.3511ZM56.8154 11.9907C55.9711 8.10093 53.7833 4.90429 50.4545 2.85267C45.5826 -0.158226 39.1533 0.00812143 34.4525 3.26853C30.6131 5.92178 28.3968 10.269 28.3968 14.7465C28.3968 15.8694 28.5394 17.0033 28.8247 18.1206C30.2737 23.6655 35.1741 27.8686 41.0159 28.5645C42.7502 28.7696 44.4388 28.6754 46.1788 28.2318C47.6848 27.8713 49.1367 27.2836 50.4745 26.4463C51.8636 25.5785 53.0246 24.4307 54.1541 23.0584C54.1712 23.0306 54.1941 23.0112 54.2169 22.9835C54.9984 22.0409 54.853 20.6934 53.9972 20.0558C53.2727 19.5152 52.0576 19.2961 51.1049 20.4883C50.8995 20.7766 50.6685 21.0705 50.4203 21.3616C49.6587 22.1795 48.7146 22.9696 47.585 23.5851C46.1417 24.3337 44.5044 24.7579 42.7644 24.769C37.0653 24.7052 34.0189 20.8321 32.9322 18.0707C32.7439 17.5523 32.5984 17.0172 32.4957 16.4627L32.4672 16.1716H52.919C55.7201 16.1106 57.2262 14.1837 56.8097 11.9851L56.8154 11.9907Z" fill="white"/>
</svg>
