<svg width="186" height="45" viewBox="0 0 186 45" fill="none" xmlns="http://www.w3.org/2000/svg">
<path d="M43.0108 1.30753C38.5994 1.30753 37.0511 4.37501 37.0511 7.23799V8.99083H36.1162C35.4443 8.99083 34.9185 9.51669 34.9185 10.1886C34.9185 10.8605 35.4443 11.3864 36.1162 11.3864H37.0511V23.481C37.0511 24.1822 37.6062 24.7664 38.3365 24.7664C39.0376 24.7664 39.6219 24.2114 39.6219 23.481V11.3864H42.4557C43.1276 11.3864 43.6535 10.8605 43.6535 10.1886C43.6535 9.51669 43.1276 8.99083 42.4557 8.99083H39.6219V7.23799C39.6219 5.63121 40.2062 3.7323 43.04 3.7323C43.7119 3.7323 44.2377 3.20644 44.2377 2.53452C44.2085 1.83338 43.6827 1.30753 43.0108 1.30753Z" fill="white"/>
<path d="M52.9435 8.5819C51.0446 8.5819 49.4378 9.37068 48.5322 10.6561V9.98417C48.5322 9.28304 47.9771 8.69876 47.2467 8.69876C46.5456 8.69876 45.9613 9.25382 45.9613 9.98417V23.4811C45.9613 24.1822 46.5164 24.7665 47.2467 24.7665C47.9479 24.7665 48.5322 24.2114 48.5322 23.4811V16.0315C48.5322 12.9056 50.1974 11.0359 52.9435 11.0359C53.6154 11.0359 54.1705 10.4808 54.1705 9.80889C54.1997 9.13696 53.6446 8.5819 52.9435 8.5819Z" fill="white"/>
<path d="M68.573 15.2133C68.573 14.483 68.4562 12.5841 67.346 11.0065C66.2067 9.37054 64.4246 8.52333 61.9999 8.52333C57.5009 8.52333 54.9301 11.5032 54.9301 16.7033C54.9301 22.0787 57.5009 24.9416 62.3212 24.9416C65.564 24.9416 67.346 23.3349 67.6674 23.0135C67.8719 22.809 68.1056 22.5461 68.1056 22.1079C68.1056 21.4652 67.5798 20.9393 66.937 20.9393C66.6157 20.9393 66.4112 21.027 66.2067 21.173C65.2718 21.8742 64.1909 22.5753 62.3504 22.5753C59.4582 22.5753 57.6178 20.6764 57.5301 17.5797H67.0247C68.573 17.5505 68.573 16.1482 68.573 15.2133ZM61.9999 10.8605C64.6291 10.8605 66.0022 12.3504 66.0606 15.2718H57.5593C57.793 12.438 59.3706 10.8605 61.9999 10.8605Z" fill="white"/>
<path d="M77.1619 15.4179C75.263 14.7752 73.627 14.1909 73.627 12.7887C73.627 11.2403 75.3506 11.0066 76.3731 11.0066C78.2136 11.0066 79.1193 11.6493 79.8496 12.3504C80.0833 12.5842 80.3755 12.701 80.6968 12.701C81.3395 12.701 81.8654 12.1752 81.8654 11.5325C81.8654 11.1819 81.7193 10.9482 81.6025 10.7729C80.5215 9.3414 78.681 8.55262 76.3731 8.55262C73.1012 8.55262 71.0854 10.1886 71.0854 12.7887C71.0854 15.973 73.8899 16.9371 76.3439 17.755C78.2136 18.3978 79.8204 18.9236 79.8204 20.2967C79.8204 22.1664 77.7462 22.4585 76.49 22.4585C74.7956 22.4585 73.4809 21.9327 72.4 20.881C72.0787 20.5596 71.7281 20.5012 71.5236 20.5012C70.8809 20.5012 70.355 21.027 70.355 21.6697C70.355 21.9327 70.4427 22.1372 70.6472 22.4293C71.6112 23.6563 73.8023 24.9125 76.49 24.9125C80.171 24.9125 82.362 23.1889 82.362 20.3259C82.362 17.2292 79.6159 16.2651 77.1619 15.4179Z" fill="white"/>
<path d="M92.324 8.52337C90.5712 8.52337 88.9936 9.22451 88.1172 10.3346V1.68727C88.1172 0.986135 87.5621 0.401855 86.8318 0.401855C86.1306 0.401855 85.5463 0.956921 85.5463 1.68727V23.5102C85.5463 24.2113 86.1014 24.7956 86.8318 24.7956C87.5329 24.7956 88.1172 24.2405 88.1172 23.5102V15.301C88.1172 12.3504 89.5487 10.8605 92.324 10.8605C95.0117 10.8605 96.1218 12.0875 96.1218 15.0673V23.5102C96.1218 24.2113 96.6769 24.7956 97.4073 24.7956C98.1084 24.7956 98.6927 24.2405 98.6927 23.5102V14.6291C98.6343 10.5683 96.5016 8.52337 92.324 8.52337Z" fill="white"/>
<path d="M119.931 8.72802C119.376 8.72802 118.938 9.04937 118.733 9.57523L115.082 19.9754L112.102 9.57523C111.985 9.16623 111.547 8.72802 110.904 8.72802C110.261 8.72802 109.823 9.16623 109.706 9.57523L106.726 19.9462L103.075 9.54601C102.87 9.02016 102.432 8.72802 101.877 8.72802C101.176 8.72802 100.592 9.28308 100.592 10.0134C100.592 10.1887 100.621 10.364 100.708 10.5393L105.587 23.9486C105.792 24.4744 106.23 24.7665 106.785 24.7665C107.369 24.7665 107.866 24.3868 108.012 23.8609L110.875 14.0158L113.738 23.8609C113.884 24.3868 114.41 24.7665 114.965 24.7665C115.52 24.7665 115.958 24.4452 116.163 23.9193L121.041 10.5101C121.129 10.3348 121.158 10.1303 121.158 9.95501C121.187 9.28308 120.632 8.72802 119.931 8.72802Z" fill="white"/>
<path d="M129.221 8.52333C124.576 8.52333 122.035 11.4447 122.035 16.7033C122.035 22.0202 124.576 24.9416 129.221 24.9416C133.866 24.9416 136.408 22.0202 136.408 16.7033C136.408 11.4155 133.837 8.52333 129.221 8.52333ZM129.221 22.6045C126.125 22.6045 124.606 20.6764 124.606 16.7325C124.606 12.847 126.154 10.8897 129.221 10.8897C132.289 10.8897 133.837 12.847 133.837 16.7325C133.837 20.6764 132.318 22.6045 129.221 22.6045Z" fill="white"/>
<path d="M146.282 8.5819C144.384 8.5819 142.777 9.37068 141.871 10.6561V9.98417C141.871 9.28304 141.316 8.69876 140.586 8.69876C139.885 8.69876 139.3 9.25382 139.3 9.98417V23.4811C139.3 24.1822 139.855 24.7665 140.586 24.7665C141.287 24.7665 141.871 24.2114 141.871 23.4811V16.0315C141.871 12.9056 143.536 11.0359 146.282 11.0359C146.954 11.0359 147.509 10.4808 147.509 9.80889C147.509 9.13696 146.954 8.5819 146.282 8.5819Z" fill="white"/>
<path d="M155.982 15.2426L161.269 11.0066C161.707 10.656 161.766 10.2178 161.766 9.98407C161.766 9.28293 161.211 8.69865 160.48 8.69865C160.276 8.69865 159.925 8.72787 159.604 9.02001L152.096 15.155V1.68727C152.096 0.986135 151.541 0.401855 150.811 0.401855C150.109 0.401855 149.525 0.956921 149.525 1.68727V23.5102C149.525 24.2113 150.08 24.7956 150.811 24.7956C151.512 24.7956 152.096 24.2405 152.096 23.5102V18.2517L153.878 16.8202L159.633 24.2113C159.955 24.5911 160.305 24.7956 160.714 24.7956C161.415 24.7956 162 24.2405 162 23.5102C162 23.3057 161.97 23.0135 161.737 22.7214L155.982 15.2426Z" fill="white"/>
<path d="M170.384 15.4179C168.485 14.7752 166.849 14.1909 166.849 12.7887C166.849 11.2403 168.573 11.0066 169.595 11.0066C171.436 11.0066 172.341 11.6493 173.072 12.3504C173.305 12.5842 173.598 12.701 173.919 12.701C174.562 12.701 175.088 12.1752 175.088 11.5325C175.088 11.1527 174.883 10.8897 174.825 10.7729C173.744 9.3414 171.903 8.55262 169.595 8.55262C166.323 8.55262 164.308 10.1886 164.308 12.7887C164.308 15.973 167.112 16.9371 169.566 17.755C171.436 18.3978 173.043 18.9236 173.043 20.2967C173.043 22.1664 170.968 22.4585 169.712 22.4585C168.018 22.4585 166.703 21.9327 165.622 20.881C165.301 20.5596 164.979 20.5012 164.746 20.5012C164.103 20.5012 163.577 21.027 163.577 21.6697C163.577 21.9327 163.665 22.1372 163.869 22.4293C164.833 23.6563 167.024 24.9125 169.712 24.9125C173.393 24.9125 175.584 23.1889 175.584 20.3259C175.584 17.2292 172.838 16.2651 170.384 15.4179Z" fill="white"/>
<g style="mix-blend-mode:plus-lighter">
<path d="M0.474915 22.7796C0.971554 26.0223 2.49069 28.9437 4.68174 31.1348L9.7942 26.0223C9.7942 20.8514 12.4819 15.8266 17.273 13.0513L0.474915 22.7796Z" fill="#9B65C3"/>
<path d="M9.7942 26.0225C7.25258 26.0225 4.68174 25.3798 2.3154 24.0067C1.67269 23.6269 1.0592 23.2179 0.474915 22.7505C0.971554 25.9933 2.49068 28.9147 4.68174 31.1057L9.7942 26.0225Z" fill="#AFBCCF"/>
<path d="M9.79423 26.0225L4.68176 31.135C6.90203 33.3552 9.79423 34.8744 13.037 35.3418L22.7361 18.5437C19.9899 23.3348 14.9651 26.0225 9.79423 26.0225Z" fill="#BE63C5"/>
<path d="M11.81 33.5306C10.4369 31.1642 9.79423 28.5934 9.79423 26.0518L4.68176 31.1642C6.90203 33.3845 9.79423 34.9036 13.037 35.371C12.5988 34.7868 12.1898 34.1733 11.81 33.5306Z" fill="#CFD7E2"/>
<path d="M28.8417 6.39087L17.3022 13.0809C12.5111 15.8562 6.81432 15.6517 2.34457 13.0809C1.05915 15.2719 0.328796 17.8428 0.328796 20.5597C0.328796 21.3193 0.387224 22.0496 0.50408 22.78C1.08836 23.2474 1.70186 23.6564 2.34457 24.0362C4.71091 25.4092 7.28175 26.0519 9.82337 26.0519L29.1631 6.71223C29.0462 6.59537 28.9586 6.47851 28.8417 6.39087Z" fill="#3278B1"/>
<path d="M2.3155 24.0358C4.68184 25.4089 7.25268 26.0516 9.7943 26.0516C9.7943 20.8807 12.482 15.8559 17.2731 13.0806L0.445801 22.7796C1.0593 23.2179 1.67279 23.6561 2.3155 24.0358Z" fill="#C4CEDD"/>
<path d="M2.31545 13.0806C1.03003 15.2716 0.299683 17.8425 0.299683 20.5594C0.299683 21.3189 0.358111 22.0493 0.474967 22.7796L17.3023 13.0806C12.482 15.8267 6.78521 15.6514 2.31545 13.0806Z" fill="#AFBCCF"/>
<path d="M29.1632 6.68314C29.0755 6.5955 28.9587 6.47864 28.8418 6.391C28.6957 6.27414 28.5497 6.15728 28.3744 6.06964C27.8193 5.74829 27.1766 5.573 26.5047 5.573H15.2865C9.73581 5.573 4.91548 8.58205 2.31543 13.0518C6.78518 15.6226 12.4819 15.8271 17.273 13.0518C12.4819 15.8271 9.79423 20.852 9.79423 26.0229C14.9651 26.0229 19.9899 23.3352 22.7653 18.5441L29.4261 7.0045C29.3385 6.88764 29.2508 6.77078 29.1632 6.68314Z" fill="#19BB7D"/>
<path d="M17.3023 13.0808L28.8418 6.41999C28.6957 6.30313 28.5497 6.18628 28.3744 6.09863L2.31543 13.0808C6.78518 15.6516 12.4819 15.8269 17.3023 13.0808Z" fill="#C4CEDD"/>
<path d="M26.5047 5.573H15.2865C9.73581 5.573 4.91548 8.58205 2.31543 13.0518L28.3744 6.06964C27.8193 5.7775 27.2058 5.573 26.5047 5.573Z" fill="#AFBCCF"/>
<path d="M22.7654 18.544L29.4262 7.00446C29.3385 6.88761 29.2509 6.79996 29.134 6.68311L9.79431 26.0228C9.79431 28.5644 10.437 31.1353 11.8101 33.5016C12.1899 34.1443 12.5989 34.7578 13.0663 35.3421C13.7966 35.459 14.527 35.5174 15.2866 35.5174C18.0035 35.5174 20.5743 34.787 22.7654 33.5016C20.1945 29.0319 19.99 23.3351 22.7654 18.544Z" fill="#DA3757"/>
<path d="M9.79431 26.0225C9.79431 28.5641 10.437 31.135 11.8101 33.5013C12.1899 34.144 12.5989 34.7575 13.0663 35.3418L22.7654 18.5437C19.99 23.3348 14.9652 26.0225 9.79431 26.0225Z" fill="#AFBCCF"/>
<path d="M22.7653 18.5437L13.0662 35.371C13.7966 35.4879 14.5269 35.5463 15.2865 35.5463C18.0034 35.5463 20.5742 34.8159 22.7653 33.5305C20.1945 29.0316 19.99 23.3348 22.7653 18.5437Z" fill="#C4CEDD"/>
<path d="M29.7474 7.47178C29.6598 7.2965 29.5429 7.15044 29.4261 7.00437C29.3384 6.88751 29.2508 6.79987 29.1339 6.68301C29.0463 6.59537 28.9294 6.47851 28.8126 6.39087L17.3022 13.0809C12.5111 15.8562 9.82343 20.881 9.82343 26.0519C14.9943 26.0519 20.0191 23.3642 22.7945 18.5731C20.0191 23.3642 20.2236 29.061 22.7945 33.5307C27.2642 30.9307 30.2733 26.1104 30.2733 20.5597V9.34149C30.2441 8.64035 30.0688 7.99764 29.7474 7.47178Z" fill="#8BDF55"/>
<path d="M28.8418 6.39087L17.3022 13.0809C12.5111 15.8562 9.82343 20.881 9.82343 26.0519L29.1631 6.71223C29.0463 6.59537 28.9586 6.47851 28.8418 6.39087Z" fill="#CFD7E2"/>
<path d="M9.79431 26.0228C14.9652 26.0228 19.99 23.3351 22.7654 18.544L29.4262 7.00446C29.3385 6.88761 29.2509 6.79996 29.134 6.68311L9.79431 26.0228Z" fill="#C4CEDD"/>
<path d="M29.4262 7.00415L22.7654 18.5437C19.99 23.3348 20.1945 29.0316 22.7654 33.5013L29.7475 7.44236C29.6599 7.29629 29.543 7.15022 29.4262 7.00415Z" fill="#AFBCCF"/>
<path d="M22.7654 33.5309C27.2351 30.9308 30.2442 26.1105 30.2442 20.5598V9.34163C30.2442 8.66971 30.0689 8.02699 29.7475 7.47192L22.7654 33.5309Z" fill="#CFD7E2"/>
</g>
</svg>
