<svg width="172" height="40" viewBox="0 0 172 40" fill="none" xmlns="http://www.w3.org/2000/svg">
<path opacity="0.78" fill-rule="evenodd" clip-rule="evenodd" d="M164.635 23.7442C168.374 23.7442 171.262 20.6976 171.299 17.0855C171.039 15.508 170.487 12.5898 166.391 12.5898C161.914 12.5898 160.429 18.8474 156.783 22.8808C156.487 25.1752 154.318 27.228 151.604 27.572C152.27 28.2679 153.747 28.642 155.51 28.642C158.74 28.642 162.649 27.6703 164.694 25.6516C161.966 25.6867 160.211 23.9337 160.038 21.5039C161.369 23.1164 162.873 23.7442 164.635 23.7442Z" fill="white"/>
<path fill-rule="evenodd" clip-rule="evenodd" d="M135.911 13.7884C135.911 11.8018 135.79 10.4741 134.49 10.4741C133.898 10.4741 133.608 10.5904 133.089 10.7639C133.55 17.4828 132.032 23.3994 130.179 23.3994C127.748 23.3994 128.962 8.99894 123.812 8.99894C119.066 8.99894 118.384 20.4943 117.844 20.4943C117.476 20.4943 117.421 17.4758 117.44 15.1753C117.639 14.0702 117.747 13.0814 117.747 12.3293C117.747 11.2583 117.311 9.40709 114.88 10.3327C114.966 18.5508 113.319 23.5198 111.467 23.5198C108.747 23.5198 108.719 16.0668 108.719 14.013C108.719 12.0074 108.862 9.32686 105.882 10.2815C105.435 17.4517 103.557 22.8639 102.372 22.8639C100.605 22.8639 100.961 10.4751 97.1394 10.4751C93.7061 10.4751 92.644 22.2081 91.9279 22.2081C90.647 22.2081 92.328 8.99894 87.3693 8.99894C84.7666 8.99894 83.7335 13.4103 82.7145 18.3452C82.5159 19.3019 82.3082 19.33 82.2751 18.252C82.2485 17.3303 82.2405 16.4082 82.2511 15.4862C83.5038 10.5252 81.9752 8.69308 79.6774 10.0148C80.4176 19.1695 76.2161 23.6451 72.9905 23.6451C71.824 23.6451 70.9083 23.1497 70.2223 22.3665C74.0898 19.9959 75.8079 17.2742 75.8079 14.6167C75.8079 11.7346 74.153 10.076 71.4048 10.076C67.5674 10.076 65.423 14.0251 65.423 17.3815C65.423 19.1886 65.759 20.7229 66.3157 21.9885C64.9977 22.6172 63.755 23.1608 62.5986 23.6883C62.4983 20.2345 62.1071 16.6073 61.8103 13.2619C59.7692 12.6993 59.1724 13.6811 59.0149 15.4982C58.6539 19.6449 57.1173 22.2171 55.7593 22.2171C54.7362 22.2171 54.1134 20.9736 54.0381 19.6529C53.659 13.0062 59.0561 11.157 61.8775 12.1207C62.4632 10.6556 61.8203 9.59963 59.2747 9.59963C56.1855 9.59963 53.8777 11.4749 52.1856 13.8817C51.0553 15.4862 49.7514 16.6244 48.0172 18.0013C48.0614 17.6051 48.0854 17.209 48.0854 16.8199C48.0854 12.1328 45.5449 10.076 43.1197 10.076C41.1127 10.076 39.8519 11.2794 39.1198 13.1245C38.9392 11.2743 38.5711 10.4751 37.4949 10.4751C37.0336 10.4751 36.3946 10.6055 35.7066 10.9384C36.0215 11.9713 36.1439 14.2627 36.1439 15.771C36.1439 21.4068 34.5291 23.9319 32.9745 23.9319C31.1992 23.9319 30.9164 17.2471 30.7679 14.6458C30.4901 14.5392 30.1949 14.4848 29.8973 14.4854C28.2915 14.4854 28.0819 16.6434 27.6857 18.627C27.2464 20.8252 25.9797 23.59 24.1041 23.59C22.9707 23.59 22.2636 22.4969 22.1753 20.5314C21.9908 16.5472 25.3067 11.8249 30.4951 13.294C31.1751 11.7066 30.1079 10.4982 27.9545 10.4982C24.1623 10.4982 21.0269 13.3361 19.6599 16.6946C18.2717 19.7732 15.8415 24.296 10.8988 24.296C7.40842 24.296 4.73847 21.2534 4.73847 14.8664C4.73847 9.36096 8.2088 4.13125 11.9128 4.13125C14.5035 4.13125 15.1043 6.67841 14.8766 9.07114C16.2166 10.1492 18.4192 9.14736 18.4192 6.45579C18.4192 4.60057 16.9127 1.45573 12.0502 1.45573C6.03132 1.45573 0.713501 7.4566 0.713501 15.3428C0.713501 22.9762 4.58903 27.4889 10.0754 27.4889C13.5356 27.4889 16.8024 25.5134 19.0571 21.8711C19.6238 25.0601 21.7982 26.4029 23.4281 26.4029C26.0649 26.4029 27.787 24.6971 28.7278 22.3846C29.3146 24.7011 30.5533 26.4119 32.6094 26.4119C34.0597 26.4119 35.1901 25.6789 36.0416 24.5005C35.7046 32.5462 35.2773 37.6756 40.0325 36.6647C39.2983 34.3783 39.0636 30.2136 39.0636 26.4751C39.0636 16.2433 40.7516 12.8768 42.8669 12.8768C44.3995 12.8768 44.8959 14.8303 44.8959 16.9142C44.8959 18.0303 44.7896 19.3129 44.5048 20.4712C41.906 22.1108 39.8299 23.4045 39.8299 25.0491C39.8299 26.3497 40.7947 26.4711 41.6302 26.4711C43.6262 26.4711 46.0283 24.5126 47.3563 20.8172C48.5177 20.1152 49.6812 19.3099 50.7955 18.2139C50.7584 18.5889 50.7353 18.966 50.7353 19.3511C50.7353 23.0204 52.3431 25.2356 54.9067 25.2356C56.9157 25.2356 58.4232 23.8116 59.4863 21.6786C59.5535 22.9081 59.5947 24.0402 59.6137 25.0832C55.5386 26.9655 51.0282 28.8809 51.0282 34.1958C51.0282 36.9455 53.0141 39.0164 55.6018 39.0164C61.2787 39.0164 62.5725 33.0255 62.6267 26.0659C64.4742 25.2637 65.8513 24.6459 67.44 23.8617C68.798 25.5605 70.6435 26.4129 72.3376 26.4129C75.5421 26.4129 77.9473 24.7151 79.88 21.2735C80.223 23.8928 80.9021 26.4129 82.2942 26.4129C84.8348 26.4129 85.3483 13.1356 87.2379 13.1356C88.6842 13.1356 87.4957 27.502 91.315 27.502C94.5848 27.502 95.1986 14.8594 96.7903 14.8594C97.9187 14.8594 98.0039 26.4149 101.565 26.4149C103.316 26.4149 105.215 24.311 106.168 19.9026C106.615 22.8349 108.097 26.4149 110.991 26.4149C112.679 26.4149 114.13 24.7071 115.25 22.4367C115.559 24.7733 116.221 26.4149 117.5 26.4149C120.827 26.4149 120.715 13.1657 123.349 13.1657C125.403 13.1657 124.768 26.4149 129.658 26.4149C131.985 26.4149 133.088 24.4313 133.744 21.9443C134.644 25.6036 136.098 26.4149 137.294 26.4149C138.051 26.4149 138.624 26.1482 139.374 25.2537C135.593 23.613 135.911 17.6443 135.911 13.7884ZM55.8395 36.5384C54.665 36.5384 54.0442 35.4243 54.0442 34.1617C54.0442 30.7652 56.5396 28.9611 59.6147 27.4127C59.4743 34.8406 57.7482 36.5384 55.8395 36.5384ZM71.1149 12.4607C72.2583 12.4607 72.9133 13.5106 72.8 15.0209C72.6666 16.7949 71.3757 18.8236 69.132 20.4191C67.9585 17.0847 68.8301 12.4607 71.1149 12.4607ZM107.347 7.43855C108.437 7.40145 109.198 6.46582 109.202 5.35269C109.206 4.23956 108.454 3.3661 107.364 3.40521C106.274 3.44231 105.385 4.37594 105.38 5.49007C105.375 6.6032 106.255 7.47566 107.347 7.43855ZM134.449 8.00314C135.441 7.96804 136.251 7.07754 136.255 6.01756C136.26 4.95557 135.458 4.12523 134.464 4.16033C133.47 4.19643 132.663 5.08694 132.658 6.14692C132.654 7.2079 133.456 8.03924 134.449 8.00314ZM171.293 16.8199C171.212 12.6211 169.213 9.07816 166.133 6.25021C163.794 4.1142 161.014 2.49264 158.101 1.27121C157.866 1.17217 157.631 1.07622 157.394 0.983398L157.393 0.983398C153.805 5.28048 141.382 8.4875 141.382 17.4968C141.382 21.0187 143.607 24.312 146.873 25.6337C148.767 26.3497 150.662 26.3888 152.557 25.7521C154.242 25.1985 155.628 24.1536 156.781 22.88C160.43 18.8466 161.914 12.591 166.39 12.591C170.487 12.591 171.038 15.5062 171.3 17.0847C171.3 17.0807 171.298 16.9704 171.293 16.8199Z" fill="white"/>
</svg>
