<svg width="62" height="41" viewBox="0 0 62 41" fill="none" xmlns="http://www.w3.org/2000/svg">
<path fill-rule="evenodd" clip-rule="evenodd" d="M28.3093 0.800692C26.9735 1.21684 24.6585 2.02851 24.4821 2.1426C24.3742 2.21236 24.1856 2.45239 24.063 2.67601C23.7242 3.29361 21.0556 9.54214 19.5528 13.2364L18.2181 16.5174L17.3855 16.6608C16.2163 16.8621 12.3416 17.615 11.48 17.8082C11.0849 17.8967 10.7616 17.9564 10.7616 17.9405C10.7616 17.8773 13.8322 10.2341 15.3451 6.53162C16.6742 3.27883 16.9554 2.51708 16.9581 2.16038C16.9624 1.62053 16.7488 1.30988 16.2955 1.19665C16.0098 1.12526 15.9054 1.14725 15.4778 1.36847C14.78 1.72963 14.4649 2.19792 13.7299 3.96637C12.7391 6.35052 8.74456 16.1832 8.23772 17.4858L7.78122 18.6588L7.02897 18.8429C5.60067 19.1923 2.06011 20.1362 1.36439 20.353C0.615012 20.5866 0.137085 20.9076 0.137085 21.1776C0.137085 21.4111 0.424033 21.9416 0.694695 22.2086C0.819489 22.3317 1.15703 22.5171 1.44485 22.6206C1.91155 22.7885 2.04296 22.8951 2.6604 23.6073C3.45592 24.5247 4.07911 24.9855 4.73086 25.138C4.98228 25.1968 5.18806 25.2673 5.18806 25.2946C5.18806 25.3218 4.8911 26.1342 4.52821 27.0998C3.51271 29.8015 2.13788 33.5604 1.43519 35.5564C0.715509 37.6004 0.625898 38.2031 0.973283 38.664C1.47612 39.331 2.46907 39.0409 3.0542 38.0559C3.17011 37.8607 3.73773 36.4067 4.31555 34.8246C6.26967 29.4741 8.01765 24.9309 8.14898 24.8612C8.22083 24.8232 8.92622 24.6545 9.71652 24.4866C10.5068 24.3186 12.1509 23.9682 13.37 23.7079C14.5891 23.4476 15.598 23.2458 15.6118 23.2595C15.6256 23.2731 15.3792 23.9772 15.064 24.8242C14.1867 27.1821 12.0421 33.5665 11.5494 35.2869C11.3077 36.1311 11.1099 36.9653 11.1099 37.1408C11.1099 37.5615 11.5101 38.1535 12.1446 38.6715C12.4137 38.8913 12.9882 39.4304 13.4211 39.8695C14.1569 40.6159 14.2311 40.668 14.5587 40.668C15.0613 40.668 15.2942 40.381 15.6393 39.3364C17.0826 34.9673 21.7896 22.1084 22.0258 21.8894C22.081 21.8381 22.381 21.729 22.6923 21.6469C23.9052 21.327 24.8314 20.6958 25.4804 19.7471C26.0946 18.8492 26.6171 18.2808 27.3389 17.7254C28.0808 17.1546 28.3526 16.6598 28.2162 16.1287C28.0411 15.4476 27.419 15.3073 25.5007 15.5167C24.4397 15.6325 24.4339 15.6322 24.4888 15.4574C24.5523 15.2555 25.3651 13.2044 27.4351 8.02241C29.2771 3.41113 29.6544 2.41802 29.7692 1.87825C29.9934 0.823802 29.4715 0.438584 28.3093 0.800692ZM60.1827 0.838235C59.9433 0.900004 59.375 1.09493 58.92 1.27139C58.465 1.44776 57.7792 1.6859 57.396 1.80068C56.5671 2.04878 56.119 2.3389 55.6807 2.91106C55.5023 3.14387 54.6435 4.78534 53.7722 6.55894C50.355 13.5146 48.0743 18.5543 45.4901 24.8606L44.2756 27.8245L44.3242 26.0634C44.4065 23.0907 44.6744 20.5446 45.5537 14.3797C46.5188 7.61365 46.9022 4.26232 46.9022 2.59216C46.9022 1.6585 46.9003 1.65008 46.6365 1.38977C46.3793 1.13617 46.3504 1.12895 45.7438 1.16778C45.2834 1.19725 44.9087 1.29321 44.3331 1.52912C43.9021 1.70575 43.2359 1.96708 42.8527 2.10969C40.8713 2.84757 40.5311 3.08528 40.1908 3.96946C37.8686 10.0037 33.5371 23.1927 30.8358 32.455C29.4769 37.114 29.3112 37.9394 29.6171 38.5231C29.7597 38.7951 30.1481 39.0357 30.4443 39.0357C30.8991 39.0357 31.5783 38.4267 31.8238 37.7988C31.918 37.5577 32.5716 35.4468 33.2762 33.1079C35.4372 25.9348 37.8483 18.3141 39.2286 14.2938L39.9218 12.2749L39.9285 12.8067C39.9372 13.4857 39.7566 15.6081 39.3269 19.8779C38.6933 26.1753 38.5375 29.049 38.7069 31.3166C38.8107 32.7061 38.9553 33.3774 39.255 33.8612C39.3507 34.0156 39.763 34.4988 40.1714 34.9351C40.5797 35.3713 41.0617 35.9408 41.2422 36.2007C41.8932 37.1375 42.3134 37.3135 42.8006 36.853C43.0986 36.5715 43.0809 36.6112 44.2514 33.5804C46.8721 26.7944 50.5931 18.1851 53.4162 12.3754C54.1138 10.9397 54.4466 10.3294 54.274 10.8022C54.1875 11.0389 52.5799 18.9841 51.8292 22.8847C50.6315 29.1077 49.5266 35.359 49.3825 36.7273C49.2989 37.5216 49.4391 37.7758 50.3278 38.4409C50.7188 38.7335 51.3974 39.3412 51.8357 39.7913C52.621 40.5976 52.6392 40.61 53.0985 40.6476C53.4808 40.6789 53.5921 40.6557 53.7179 40.5185C53.8306 40.3956 54.4128 37.685 55.9108 30.3079C58.8317 15.9246 60.5622 7.73822 61.4559 4.0765C61.6469 3.29361 61.8257 2.34208 61.8532 1.96193C61.8999 1.31684 61.8891 1.25455 61.691 1.02732C61.4349 0.733597 60.8646 0.66212 60.1827 0.838235ZM25.1307 23.5932C24.9631 23.6482 24.6227 23.8928 24.3745 24.1368C23.5972 24.9004 23.4925 25.6311 23.9422 27.1546L24.15 27.8591L23.4125 28.658C21.8472 30.3533 21.5334 30.9429 21.5239 32.2059C21.517 33.1256 21.732 33.7038 22.2539 34.1689C23.169 34.9846 24.7185 34.9173 25.8058 34.0147C25.9512 33.894 26.0932 33.7952 26.1212 33.7952C26.1493 33.7952 26.2508 33.9473 26.347 34.1332C26.4431 34.3191 26.6093 34.5317 26.7165 34.6057C26.9755 34.7846 27.4219 34.7766 27.5924 34.5899C27.8578 34.2993 27.8553 34.0187 27.5807 33.2418L27.3172 32.4964L27.6981 32.0024C28.2917 31.2324 28.5271 30.7376 28.5271 30.2601C28.5271 29.7496 28.3174 29.4998 27.8888 29.4998C27.6039 29.4998 26.931 29.8674 26.6886 30.1556C26.5909 30.2717 26.5351 30.1742 26.2945 29.4664L26.0144 28.6419L26.7309 27.7C27.6381 26.5074 27.857 26.0793 27.9013 25.411C27.9524 24.6406 27.6265 24.0823 26.916 23.7226C26.5024 23.5132 25.5788 23.4463 25.1307 23.5932ZM26.0712 25.1356C26.2981 25.3593 26.1907 25.7727 25.7933 26.2054L25.4108 26.6218L25.3059 26.2383C25.1932 25.8259 25.2338 25.3494 25.3984 25.1537C25.523 25.0056 25.9284 24.9947 26.0712 25.1356ZM25.1318 30.824L25.3287 31.418L25.0337 31.6611C24.482 32.1159 23.9115 32.1275 23.9115 31.684C23.9115 31.2998 24.7229 30.0012 24.8663 30.1559C24.9041 30.1966 25.0235 30.4973 25.1318 30.824Z" fill="white"/>
</svg>
