<svg width="143" height="23" viewBox="0 0 143 23" fill="none" xmlns="http://www.w3.org/2000/svg">
<path d="M25.7745 4.4986V13.8256C25.7745 14.1284 26.0176 14.3858 26.3036 14.3858C26.3894 14.3858 26.4895 14.3555 26.561 14.3101L34.1968 9.64659C34.4542 9.49518 34.54 9.14693 34.397 8.88953C34.3541 8.79869 34.2826 8.73812 34.1968 8.67756L26.561 4.01408C26.3036 3.86267 25.989 3.95351 25.846 4.22605C25.7888 4.3169 25.7745 4.40775 25.7745 4.4986Z" fill="white"/>
<path d="M8.68709 18.5648V9.23789C8.68709 8.93506 8.45831 8.67766 8.15802 8.67766C8.05793 8.67766 7.97213 8.70795 7.88634 8.75337L0.264836 13.4168C0.00744903 13.5683 -0.0783465 13.9165 0.0789452 14.189C0.121843 14.2799 0.193339 14.3405 0.264836 14.3859L7.90063 19.0494C8.15802 19.2008 8.4726 19.1099 8.6156 18.8374C8.6585 18.7617 8.68709 18.6557 8.68709 18.5648Z" fill="white"/>
<path d="M12.8911 12.3571V21.684C12.8911 21.9869 13.1342 22.2443 13.4202 22.2443C13.506 22.2443 13.6061 22.214 13.6776 22.1685L21.2991 17.5051C21.5565 17.3537 21.6423 17.0054 21.485 16.748C21.4421 16.6572 21.3706 16.5966 21.2991 16.5512L13.6776 11.8877C13.4202 11.7363 13.1056 11.8271 12.9626 12.0997C12.9197 12.1754 12.8911 12.2662 12.8911 12.3571Z" fill="white"/>
<path d="M21.5994 10.7216V1.39468C21.5994 1.09185 21.3564 0.834455 21.0704 0.834455C20.9846 0.834455 20.8845 0.864737 20.813 0.910161L13.1772 5.57364C12.9198 5.72505 12.834 6.0733 12.9913 6.3307C13.0342 6.42154 13.1057 6.48211 13.1772 6.52753L20.813 11.191C21.0704 11.3424 21.385 11.2516 21.528 10.9942C21.5852 10.9185 21.5994 10.8276 21.5994 10.7216Z" fill="white"/>
<path d="M69.2728 22.2593H66.9993C66.6704 22.2593 66.3987 21.9716 66.3987 21.6234V7.33014C66.3987 6.98189 66.6704 6.69421 66.9993 6.69421H69.2728C69.6017 6.69421 69.8734 6.98189 69.8734 7.33014V21.6385C69.8734 21.9868 69.6017 22.2593 69.2728 22.2593Z" fill="white"/>
<path d="M80.1831 4.87711C85.1593 4.87711 87.9762 8.61697 87.9762 13.8407V14.2646C87.9762 14.6129 87.7046 14.9006 87.3757 14.9006H76.0078C75.8362 14.9006 75.7075 15.0368 75.7075 15.2185C75.7075 15.2337 75.7075 15.2488 75.7075 15.2791C76.165 17.9136 78.2528 19.2461 80.4691 19.2461C82.0421 19.2612 83.5721 18.6556 84.7446 17.5654C84.9877 17.3383 85.3738 17.3686 85.5883 17.6411L86.9181 19.3218C87.1183 19.5792 87.104 19.9577 86.8752 20.1848C85.3166 21.6838 83.2718 22.668 80.512 22.668C75.3786 22.668 72.1469 19.0644 72.1469 13.8407C72.1327 8.85923 75.2356 4.87711 80.1831 4.87711ZM80.1117 8.1476C77.7094 8.1476 76.2651 9.48002 75.7647 11.7361C75.7218 11.9026 75.8219 12.0692 75.9935 12.1146C76.0078 12.1146 76.0364 12.1297 76.0507 12.1297H83.8438C84.0154 12.1297 84.144 11.9935 84.144 11.8118C84.144 11.7966 84.144 11.7815 84.144 11.7663C83.8152 9.60115 82.4853 8.1476 80.1117 8.1476Z" fill="white"/>
<path d="M118.477 4.87711C123.453 4.87711 126.27 8.61697 126.27 13.8407V14.2646C126.27 14.6129 125.998 14.9006 125.669 14.9006H114.301C114.144 14.9006 114.001 15.052 114.015 15.2185C114.015 15.2337 114.015 15.2488 114.015 15.2639C114.473 17.8985 116.561 19.2309 118.777 19.2309C120.35 19.2461 121.866 18.6404 123.053 17.5503C123.296 17.3231 123.682 17.3534 123.896 17.626L125.226 19.3066C125.426 19.564 125.412 19.9426 125.169 20.1697C123.61 21.6687 121.565 22.6528 118.806 22.6528C113.672 22.6528 110.441 19.0492 110.441 13.8255C110.426 8.85923 113.544 4.87711 118.477 4.87711ZM118.405 8.1476C116.003 8.1476 114.559 9.48002 114.058 11.7361C114.015 11.9026 114.116 12.0692 114.287 12.1146C114.301 12.1146 114.33 12.1297 114.344 12.1297H122.137C122.309 12.1297 122.438 11.9935 122.438 11.8118C122.438 11.7966 122.438 11.7815 122.438 11.7663C122.109 9.60115 120.779 8.1476 118.405 8.1476Z" fill="white"/>
<path d="M93.1815 22.2593H90.8508C90.5219 22.2593 90.2502 21.9716 90.2502 21.6233V1.48559C90.2502 1.13734 90.5219 0.849659 90.8508 0.849659H93.1815C93.5104 0.849659 93.7821 1.13734 93.7821 1.48559V21.6385C93.7821 21.9867 93.5104 22.2593 93.1815 22.2593Z" fill="white"/>
<path d="M102.447 4.87711C105.093 4.87711 107.052 5.78557 108.425 7.49653C108.639 7.76907 108.61 8.16274 108.353 8.38985L106.723 9.84341C106.48 10.0554 106.137 10.0402 105.922 9.81312C105.007 8.84409 103.777 8.25358 102.19 8.25358C100.589 8.25358 99.5876 8.85923 99.5876 9.94939C99.5876 11.1001 100.646 11.3727 103.377 12.054C106.58 12.8716 108.825 13.8558 108.825 17.2777C108.825 20.7753 106.451 22.668 102.319 22.668C99.5304 22.668 96.8136 21.5172 95.4266 19.6397C95.2407 19.3823 95.2693 19.0038 95.498 18.7767L97.1139 17.2626C97.3569 17.0355 97.743 17.0657 97.9575 17.3231C98.9585 18.5042 100.46 19.3369 102.576 19.3369C104.278 19.3369 105.293 18.7313 105.293 17.4746C105.293 16.2178 104.306 15.9604 101.747 15.3396C98.9871 14.6886 96.07 13.6741 96.07 10.0705C96.07 6.84546 98.5009 4.87711 102.447 4.87711Z" fill="white"/>
<path d="M129.13 5.28598H131.303C131.632 5.28598 131.904 5.57366 131.904 5.92191V6.92123C131.904 7.08778 132.032 7.23919 132.204 7.23919C132.29 7.23919 132.376 7.19377 132.433 7.1332C133.634 5.63423 135.278 4.89231 137.195 4.89231C140.884 4.89231 143 7.43602 143 11.8572V21.6536C143 22.0018 142.728 22.2895 142.399 22.2895H140.069C139.74 22.2895 139.468 22.0018 139.468 21.6536V12.4932C139.468 9.81319 138.253 8.35963 135.979 8.35963C133.377 8.35963 132.004 10.3886 132.004 14.2647V21.6536C132.004 22.0018 131.732 22.2895 131.403 22.2895H129.13C128.801 22.2895 128.529 22.0018 128.529 21.6536V5.92191C128.543 5.57366 128.801 5.28598 129.13 5.28598Z" fill="white"/>
<path d="M65.9698 2.95428C65.9269 1.72785 66.842 0.698251 67.986 0.667969C68.0289 0.667969 68.0861 0.667969 68.129 0.667969C69.3873 0.667969 70.2882 1.637 70.2882 2.95428C70.2882 4.27156 69.373 5.2406 68.129 5.2406C66.8849 5.2406 65.9698 4.28671 65.9698 2.95428Z" fill="white"/>
<path d="M43.7343 0.849659H46.1652C46.5084 0.849659 46.8373 1.00107 47.0661 1.27361L59.0918 15.8091C59.2062 15.9454 59.392 15.9605 59.5064 15.8394C59.5779 15.7788 59.6065 15.688 59.6065 15.5972V1.48559C59.6065 1.13734 59.8782 0.8648 60.1928 0.849659H62.6523C62.9812 0.849659 63.2528 1.13734 63.2528 1.48559V21.6385C63.2528 21.9867 62.9812 22.2744 62.6523 22.2744H60.1785C59.8353 22.2744 59.5064 22.123 59.2777 21.8353L47.3092 7.33008C47.1948 7.19381 47.0089 7.17867 46.8945 7.2998C46.823 7.36036 46.7944 7.45121 46.7944 7.54205V21.6385C46.7944 21.9867 46.5227 22.2744 46.1938 22.2744H43.7343C43.4055 22.2744 43.1338 21.9867 43.1338 21.6385V1.48559C43.1338 1.13734 43.4055 0.849659 43.7343 0.849659Z" fill="white"/>
</svg>
